<?xml version="1.0" encoding="utf-8"?>
<!-- Generator: Adobe Illustrator 16.0.0, SVG Export Plug-In . SVG Version: 6.00 Build 0)  -->
<!DOCTYPE svg PUBLIC "-//W3C//DTD SVG 1.1//EN" "http://www.w3.org/Graphics/SVG/1.1/DTD/svg11.dtd">
<svg version="1.1" id="Layer_1" xmlns="http://www.w3.org/2000/svg" xmlns:xlink="http://www.w3.org/1999/xlink" x="0px" y="0px"
	 width="1400px" height="980px" viewBox="0 0 1400 980" enable-background="new 0 0 1400 980" xml:space="preserve">
<g>
	<g>
		<g>
			<rect fill="#FFFFFF" width="1400" height="980"/>
		</g>
	</g>
	<g>
		<g>
			<path fill="#D0F0FF" d="M931.8,398h-1.5c0-56.6-45.9-102.5-102.5-102.5c-11.5,0-22.5,2-32.8,5.5c-19.3-62.9-77.8-108.7-147-108.7
				C563,192.2,494.2,261,494.2,346c-50.7,0-91.8,41.1-91.8,91.8c0,50.7,41.1,91.8,91.8,91.8h250.9c1,0,2-0.1,3.1-0.2
				c1,0,2,0.2,3.1,0.2h180.6c36.3,0,65.8-29.5,65.8-65.8C997.6,427.5,968.1,398,931.8,398z"/>
			<path d="M931.8,533.5H751.3c-0.7,0-1.4,0-2.1-0.1l-1.1-0.1l-0.9,0.1c-0.7,0-1.3,0.1-2,0.1H494.2c-52.8,0-95.7-42.9-95.7-95.7
				c0-51.5,40.9-93.6,91.9-95.6c2-85.2,71.9-153.9,157.6-153.9c68.5,0,128.1,43.1,149.6,107.8c9.9-3,20.1-4.5,30.3-4.5
				c57.4,0,104.3,45.7,106.3,102.5c37.4,1.2,67.4,32,67.4,69.6C1001.5,502.2,970.2,533.5,931.8,533.5z M748.1,525.6l1.6,0.1
				c0.5,0,1.1,0.1,1.6,0.1h180.6c34.1,0,61.9-27.8,61.9-61.9c0-34.1-27.8-61.9-61.9-61.9h-1.5c-2.1,0-3.9-1.7-3.9-3.9
				c0-54.4-44.2-98.6-98.6-98.6c-10.6,0-21.3,1.8-31.6,5.2c-1,0.3-2.1,0.3-3-0.2c-0.9-0.5-1.6-1.3-1.9-2.3
				c-19.4-63.4-77-106-143.3-106c-82.6,0-149.9,67.2-149.9,149.9c0,2.1-1.7,3.9-3.9,3.9c-48.5,0-87.9,39.4-87.9,87.9
				s39.4,87.9,87.9,87.9h250.9c0.5,0,1,0,1.5-0.1L748.1,525.6z"/>
		</g>
		<g>
			<polygon fill="#6D6E71" points="535.4,419 535.4,754.3 864.6,754.3 864.6,465.4 818.9,419.6 			"/>
			<path d="M864.6,758.2H535.4c-2.1,0-3.9-1.7-3.9-3.9V419c0-1,0.4-2,1.1-2.7c0.7-0.7,1.7-1.1,2.7-1.1c0,0,0,0,0,0l283.5,0.6
				c1,0,2,0.4,2.7,1.1l45.7,45.7c0.7,0.7,1.1,1.7,1.1,2.7v289C868.5,756.5,866.7,758.2,864.6,758.2z M539.3,750.4h321.4V467
				l-43.5-43.4l-278-0.6V750.4z"/>
		</g>
		<g>
			<rect x="612.7" y="436.7" fill="#FFFFFF" width="174.6" height="98.3"/>
			<path d="M787.3,538.9H612.7c-2.1,0-3.9-1.7-3.9-3.9v-98.3c0-2.1,1.7-3.9,3.9-3.9h174.6c2.1,0,3.9,1.7,3.9,3.9V535
				C791.2,537.1,789.5,538.9,787.3,538.9z M616.5,531.1h166.9v-90.5H616.5V531.1z"/>
		</g>
		<g>
			<rect x="589.5" y="586.7" fill="#F1F2F2" width="221" height="125.6"/>
			<path d="M810.5,716.2h-221c-2.1,0-3.9-1.7-3.9-3.9V586.7c0-2.1,1.7-3.9,3.9-3.9h221c2.1,0,3.9,1.7,3.9,3.9v125.6
				C814.4,714.4,812.6,716.2,810.5,716.2z M593.4,708.4h213.2V590.6H593.4V708.4z"/>
		</g>
		<g>
			<path fill="#FFFFFF" d="M850.3,729.7c0,6.4-5.2,11.6-11.6,11.6c-6.4,0-11.6-5.2-11.6-11.6c0-6.4,5.2-11.6,11.6-11.6
				C845.1,718.1,850.3,723.3,850.3,729.7z"/>
			<path d="M838.7,745.1c-8.5,0-15.5-6.9-15.5-15.5c0-8.5,6.9-15.5,15.5-15.5c8.5,0,15.5,6.9,15.5,15.5
				C854.1,738.2,847.2,745.1,838.7,745.1z M838.7,722c-4.3,0-7.7,3.5-7.7,7.7c0,4.2,3.5,7.7,7.7,7.7c4.3,0,7.7-3.5,7.7-7.7
				C846.4,725.4,842.9,722,838.7,722z"/>
		</g>
		<g>
			<path fill="#FFFFFF" d="M572.9,729.7c0,6.4-5.2,11.6-11.6,11.6c-6.4,0-11.6-5.2-11.6-11.6c0-6.4,5.2-11.6,11.6-11.6
				C567.7,718.1,572.9,723.3,572.9,729.7z"/>
			<path d="M561.3,745.1c-8.5,0-15.5-6.9-15.5-15.5c0-8.5,6.9-15.5,15.5-15.5c8.5,0,15.5,6.9,15.5,15.5
				C576.8,738.2,569.9,745.1,561.3,745.1z M561.3,722c-4.3,0-7.7,3.5-7.7,7.7c0,4.2,3.5,7.7,7.7,7.7c4.3,0,7.7-3.5,7.7-7.7
				C569,725.4,565.6,722,561.3,722z"/>
		</g>
		<g>
			<rect x="713.4" y="453.9" fill="#FFC5BB" width="50.6" height="64"/>
			<path d="M764,521.7h-50.6c-2.1,0-3.9-1.7-3.9-3.9v-64c0-2.1,1.7-3.9,3.9-3.9H764c2.1,0,3.9,1.7,3.9,3.9v64
				C767.9,520,766.2,521.7,764,521.7z M717.3,514h42.9v-56.2h-42.9V514z"/>
		</g>
		<g>
			<path d="M545.3,291.4c-0.6,0-1.3-0.2-1.9-0.5c-1.9-1.1-2.5-3.4-1.5-5.3c21.8-38.6,62.8-62.5,107-62.5c2.1,0,3.9,1.7,3.9,3.9
				c0,2.1-1.7,3.9-3.9,3.9c-41.5,0-79.9,22.5-100.3,58.6C548,290.7,546.7,291.4,545.3,291.4z"/>
		</g>
		<g>
			<path d="M754,653.4H646c-2.1,0-3.9-1.7-3.9-3.9s1.7-3.9,3.9-3.9h108c2.1,0,3.9,1.7,3.9,3.9S756.1,653.4,754,653.4z"/>
		</g>
		<g>
			<path d="M906.7,820.7c-2.1,0-3.9-1.7-3.9-3.9V561.6c0-2.1,1.7-3.9,3.9-3.9c2.1,0,3.9,1.7,3.9,3.9v255.2
				C910.6,818.9,908.9,820.7,906.7,820.7z"/>
		</g>
		<g>
			<path d="M906.7,820.3L906.7,820.3c-1,0-2-0.4-2.7-1.1l-27.8-27.8c-1.5-1.5-1.5-4,0-5.5c1.5-1.5,4-1.5,5.5,0l25,25l25-25
				c1.5-1.5,4-1.5,5.5,0c1.5,1.5,1.5,4,0,5.5l-27.8,27.8C908.7,819.9,907.7,820.3,906.7,820.3z"/>
		</g>
		<g>
			<path d="M493.3,820.7c-2.1,0-3.9-1.7-3.9-3.9V561.6c0-2.1,1.7-3.9,3.9-3.9c2.1,0,3.9,1.7,3.9,3.9v255.2
				C497.2,818.9,495.4,820.7,493.3,820.7z"/>
		</g>
		<g>
			<path d="M493.3,820.3c-1,0-2-0.4-2.7-1.1l-27.8-27.8c-1.5-1.5-1.5-4,0-5.5c1.5-1.5,4-1.5,5.5,0l25,25l25-25c1.5-1.5,4-1.5,5.5,0
				s1.5,4,0,5.5L496,819.2C495.3,819.9,494.3,820.3,493.3,820.3z"/>
		</g>
		<g>
			<path d="M647.5,806.4h-49.2c-2.1,0-3.9-1.7-3.9-3.9c0-2.1,1.7-3.9,3.9-3.9h49.2c2.1,0,3.9,1.7,3.9,3.9
				C651.4,804.7,649.6,806.4,647.5,806.4z"/>
		</g>
		<g>
			<path d="M724.6,806.4h-49.2c-2.1,0-3.9-1.7-3.9-3.9c0-2.1,1.7-3.9,3.9-3.9h49.2c2.1,0,3.9,1.7,3.9,3.9
				C728.5,804.7,726.7,806.4,724.6,806.4z"/>
		</g>
		<g>
			<path d="M801.7,806.4h-49.2c-2.1,0-3.9-1.7-3.9-3.9c0-2.1,1.7-3.9,3.9-3.9h49.2c2.1,0,3.9,1.7,3.9,3.9
				C805.6,804.7,803.8,806.4,801.7,806.4z"/>
		</g>
	</g>
	<g>
		<path d="M1044.6,242.4h-63.2c-0.1,0-0.8,0-0.9,0l-1.2,0h-87.8c-19.9,0-36-16.2-36-36c0-18.6,14.2-33.9,32.3-35.8
			c1.9-30.1,27-54,57.6-54c24.3,0,45.5,14.8,54,37.2c3-0.7,6-1,9-1c20.7,0,37.7,15.9,39.6,36.1c13.6,1.8,23.7,13.1,23.7,26.7
			C1071.5,230.3,1059.5,242.4,1044.6,242.4z M980.5,234.6C980.5,234.6,980.5,234.6,980.5,234.6l0.9,3.9v-3.9h63.2
			c10.6,0,19.2-8.6,19.2-19.1c0-10.6-8.6-19.2-19.2-19.2c-2.1,0-4.4-1.7-4.4-3.9c0-17.6-14.4-32-32-32c-3.5,0-6.9,0.6-10.2,1.7
			c-1,0.3-2.1,0.3-3-0.2c-0.9-0.5-1.6-1.3-1.9-2.3c-6.5-21.1-25.7-35.3-47.8-35.3c-27.5,0-49.9,22.4-49.9,49.9
			c0,2.1-1.7,3.9-3.9,3.9c-15.6,0-28.3,12.7-28.3,28.3c0,15.6,12.7,28.3,28.3,28.3h87.8C979.3,234.6,980.4,234.6,980.5,234.6z"/>
	</g>
	<g>
		<path d="M1298.3,242.4h-63.2c-0.1,0-0.8,0-0.9,0l-1.2,0h-87.8c-19.9,0-36-16.2-36-36c0-18.6,14.2-33.9,32.3-35.8
			c1.9-30.1,27-54,57.6-54c24.3,0,45.5,14.8,54,37.2c3-0.7,6-1,9-1c20.7,0,37.7,15.9,39.6,36.1c13.6,1.8,23.7,13.1,23.7,26.7
			C1325.2,230.3,1313.1,242.4,1298.3,242.4z M1234.2,234.6L1234.2,234.6l0.9,3.9v-3.9h63.2c10.6,0,19.2-8.6,19.2-19.1
			c0-10.6-8.6-19.2-19.2-19.2c-2.1,0-4.4-1.7-4.4-3.9c0-17.6-14.4-32-32-32c-3.5,0-6.9,0.6-10.2,1.7c-1,0.3-2.1,0.3-3-0.2
			c-0.9-0.5-1.6-1.3-1.9-2.3c-6.5-21.1-25.6-35.3-47.8-35.3c-27.5,0-49.9,22.4-49.9,49.9c0,2.1-1.7,3.9-3.9,3.9
			c-15.6,0-28.3,12.7-28.3,28.3c0,15.6,12.7,28.3,28.3,28.3h87.8C1233,234.6,1234.1,234.6,1234.2,234.6z"/>
	</g>
	<g>
		<g>
			<path d="M1038.2,859.7c-1,0-2-0.4-2.7-1.1l-46.7-46.7c-1.1-1.1-1.4-2.8-0.8-4.2c0.6-1.5,2-2.4,3.6-2.4h46.7
				c2.1,0,3.9,1.7,3.9,3.9v46.7c0,1.6-0.9,3-2.4,3.6C1039.2,859.6,1038.7,859.7,1038.2,859.7z M1000.9,812.9l33.5,33.5v-33.5H1000.9
				z"/>
		</g>
		<g>
			<path d="M1221.7,859.7h-183.5c-1,0-2-0.4-2.7-1.1l-46.7-46.7c-0.7-0.7-1.1-1.7-1.1-2.7V555.8c0-2.1,1.7-3.9,3.9-3.9h230.2
				c2.1,0,3.9,1.7,3.9,3.9v300C1225.6,857.9,1223.9,859.7,1221.7,859.7z M1039.8,851.9h178V559.6H995.4v247.8L1039.8,851.9z"/>
		</g>
	</g>
	<g>
		<rect x="1014.5" y="578.8" fill="#FFFFFF" width="77.6" height="77.6"/>
		<path d="M1092.1,660.2h-77.6c-2.1,0-3.9-1.7-3.9-3.9v-77.6c0-2.1,1.7-3.9,3.9-3.9h77.6c2.1,0,3.9,1.7,3.9,3.9v77.6
			C1096,658.5,1094.3,660.2,1092.1,660.2z M1018.4,652.5h69.8v-69.8h-69.8V652.5z"/>
	</g>
	<g>
		<path d="M1201,604h-89.2c-2.1,0-3.9-1.7-3.9-3.9s1.7-3.9,3.9-3.9h89.2c2.1,0,3.9,1.7,3.9,3.9S1203.2,604,1201,604z"/>
	</g>
	<g>
		<path d="M1201,638.9h-89.2c-2.1,0-3.9-1.7-3.9-3.9c0-2.1,1.7-3.9,3.9-3.9h89.2c2.1,0,3.9,1.7,3.9,3.9
			C1204.9,637.2,1203.2,638.9,1201,638.9z"/>
	</g>
	<g>
		<path d="M1199.4,694.8h-184.9c-2.1,0-3.9-1.7-3.9-3.9c0-2.1,1.7-3.9,3.9-3.9h184.9c2.1,0,3.9,1.7,3.9,3.9
			C1203.3,693,1201.6,694.8,1199.4,694.8z"/>
	</g>
	<g>
		<path d="M1199.4,729.7h-184.9c-2.1,0-3.9-1.7-3.9-3.9c0-2.1,1.7-3.9,3.9-3.9h184.9c2.1,0,3.9,1.7,3.9,3.9
			C1203.3,728,1201.6,729.7,1199.4,729.7z"/>
	</g>
	<g>
		<g>
			<path fill="#FFFFFF" d="M1139.3,786.2c0,0,5.4,114.5,82.4,140.6v-168C1221.7,758.8,1178.3,757.5,1139.3,786.2z"/>
			<path d="M1221.7,930.6c-0.4,0-0.8-0.1-1.3-0.2c-78.6-26.7-84.8-139.3-85-144.1c-0.1-1.3,0.5-2.5,1.6-3.3
				c36.5-26.8,76.3-28.1,83.9-28.1l0.9,0c2.1,0.1,3.8,1.8,3.8,3.9v168c0,1.3-0.6,2.4-1.6,3.2
				C1223.3,930.4,1222.5,930.6,1221.7,930.6z M1143.3,788c1.2,15,11.1,107.1,74.5,133.1V762.8C1206.3,763.3,1173.5,766.7,1143.3,788
				z"/>
		</g>
		<g>
			<path fill="#FFFFFF" d="M1221.7,758.8v168c77-26.1,82.4-140.6,82.4-140.6C1265.1,757.5,1221.7,758.8,1221.7,758.8z"/>
			<path d="M1221.7,930.6c-0.8,0-1.6-0.2-2.3-0.7c-1-0.7-1.6-1.9-1.6-3.2v-168c0-2.1,1.7-3.8,3.8-3.9l0.9,0
				c7.6,0,47.4,1.4,83.9,28.1c1,0.8,1.6,2,1.6,3.3c-0.2,4.8-6.4,117.4-85,144.1C1222.5,930.6,1222.1,930.6,1221.7,930.6z
				 M1225.6,762.7v158.4c63.4-26.1,73.3-118.1,74.5-133.1C1269.5,766.4,1236.2,763.2,1225.6,762.7z"/>
		</g>
		<g>
			<path d="M1197.6,866c-2.1,0-3.9-1.7-3.9-3.9V761.3c0-2.1,1.7-3.9,3.9-3.9s3.9,1.7,3.9,3.9v100.9
				C1201.5,864.3,1199.7,866,1197.6,866z"/>
		</g>
		<g>
			<path d="M1163.8,820.7c-2.1,0-3.9-1.7-3.9-3.9v-44.9c0-2.1,1.7-3.9,3.9-3.9c2.1,0,3.9,1.7,3.9,3.9v44.9
				C1167.7,818.9,1165.9,820.7,1163.8,820.7z"/>
		</g>
	</g>
	<g>
		<g>
			<path d="M88,329.7L88,329.7c-1,0-2-0.4-2.7-1.1l-25-25c-1.5-1.5-1.5-4,0-5.5l78.1-78.1c0.8-0.8,2-1.2,3.2-1.1
				c1.2,0.1,2.2,0.8,2.9,1.8c3.1,5,6.6,9.4,10.4,13.3c3.8,3.8,8.3,7.4,13.3,10.4c1,0.6,1.7,1.7,1.8,2.9c0.1,1.2-0.3,2.3-1.1,3.2
				l-78.1,78.1C90,329.3,89,329.7,88,329.7z M68.5,300.9L88,320.3l72-72c-3.9-2.7-7.4-5.7-10.6-8.9c-3.2-3.2-6.2-6.7-8.9-10.6
				L68.5,300.9z"/>
		</g>
		<g>
			<path d="M206.8,263.1C206.8,263.1,206.8,263.1,206.8,263.1c-15.1,0-29.9-4.2-42.7-12.1c-5.5-3.4-10.4-7.3-14.7-11.5
				c-4.3-4.3-8.2-9.2-11.5-14.7c-19.9-32.1-15.2-73.2,11.5-100c15.3-15.3,35.7-23.7,57.3-23.7c21.7,0,42,8.4,57.3,23.7
				c31.6,31.6,31.6,83,0,114.6C248.7,254.7,228.4,263.1,206.8,263.1z M206.7,108.8c-19.6,0-38,7.6-51.8,21.5
				c-24.2,24.2-28.5,61.3-10.4,90.4c3.1,5,6.6,9.4,10.4,13.3c3.8,3.8,8.3,7.4,13.3,10.4c11.6,7.2,24.9,11,38.7,11
				c19.6,0,37.9-7.6,51.7-21.4c28.6-28.6,28.6-75.1,0-103.7C244.7,116.5,226.3,108.8,206.7,108.8z"/>
		</g>
		<g>
			<path d="M206.7,243.3c-16.3,0-31.7-6.4-43.2-17.9c-11.5-11.5-17.9-26.9-17.9-43.2s6.4-31.7,17.9-43.2
				c11.5-11.5,26.9-17.9,43.2-17.9s31.7,6.4,43.2,17.9c11.5,11.5,17.9,26.9,17.9,43.2s-6.4,31.7-17.9,43.2
				C238.4,236.9,223,243.3,206.7,243.3z M206.7,128.8c-14.3,0-27.7,5.6-37.7,15.6c-10.1,10.1-15.6,23.5-15.6,37.7
				c0,14.3,5.6,27.7,15.6,37.7c10.1,10.1,23.5,15.6,37.7,15.6s27.7-5.6,37.7-15.6c10.1-10.1,15.6-23.5,15.6-37.7
				c0-14.3-5.5-27.6-15.6-37.7C234.3,134.3,220.9,128.8,206.7,128.8z"/>
		</g>
		<g>
			<path d="M285.2,329.7c-1,0-2-0.4-2.7-1.1l-25-25c-0.7-0.7-1.1-1.7-1.1-2.7s0.4-2,1.1-2.7l78.1-78.1c0.8-0.8,2-1.2,3.2-1.1
				c1.2,0.1,2.2,0.8,2.9,1.8c3.1,5,6.6,9.4,10.4,13.3c3.8,3.8,8.3,7.3,13.3,10.4c1,0.6,1.7,1.7,1.8,2.9c0.1,1.2-0.3,2.3-1.1,3.2
				l-78.1,78.1C287.2,329.3,286.2,329.7,285.2,329.7z M265.7,300.9l19.5,19.5l72-72c-3.9-2.7-7.4-5.7-10.6-8.9
				c-3.2-3.2-6.2-6.7-8.9-10.6L265.7,300.9z"/>
		</g>
		<g>
			<path d="M404,263.1L404,263.1c-15.1,0-29.9-4.2-42.7-12.1c-5.5-3.4-10.4-7.3-14.7-11.6c-4.3-4.3-8.2-9.2-11.6-14.7
				c-19.9-32.1-15.2-73.2,11.6-100c15.3-15.3,35.7-23.7,57.3-23.7c21.7,0,42,8.4,57.3,23.7c31.6,31.6,31.6,83,0,114.6
				C446,254.7,425.7,263.1,404,263.1z M403.9,108.8c-19.6,0-38,7.6-51.8,21.5c-24.2,24.2-28.5,61.3-10.4,90.4
				c3.1,5,6.6,9.4,10.4,13.3c3.8,3.8,8.3,7.3,13.3,10.4c11.6,7.2,25,11,38.7,11c19.5,0,37.9-7.6,51.7-21.4
				c28.6-28.6,28.6-75.1,0-103.7C441.9,116.5,423.5,108.8,403.9,108.8z"/>
		</g>
		<g>
			<path d="M403.9,243.3c-16.3,0-31.7-6.4-43.2-17.9c-11.5-11.5-17.9-26.9-17.9-43.2s6.4-31.7,17.9-43.2
				c11.5-11.5,26.9-17.9,43.2-17.9s31.7,6.4,43.2,17.9c11.5,11.5,17.9,26.9,17.9,43.2s-6.4,31.7-17.9,43.2
				C435.6,236.9,420.3,243.3,403.9,243.3z M403.9,128.8c-14.3,0-27.7,5.6-37.7,15.6c-10.1,10.1-15.6,23.5-15.6,37.7
				c0,14.3,5.6,27.7,15.6,37.7c10.1,10.1,23.5,15.6,37.7,15.6s27.7-5.6,37.7-15.6c10.1-10.1,15.6-23.5,15.6-37.7
				c0-14.3-5.6-27.6-15.6-37.7C431.6,134.3,418.2,128.8,403.9,128.8z"/>
		</g>
		<g>
			<path d="M440.1,186h-72.3c-2.1,0-3.9-1.7-3.9-3.9c0-2.1,1.7-3.9,3.9-3.9h72.3c2.1,0,3.9,1.7,3.9,3.9
				C444,184.3,442.2,186,440.1,186z"/>
		</g>
		<g>
			<g>
				<path d="M242.8,186h-72.3c-2.1,0-3.9-1.7-3.9-3.9c0-2.1,1.7-3.9,3.9-3.9h72.3c2.1,0,3.9,1.7,3.9,3.9
					C246.7,184.3,245,186,242.8,186z"/>
			</g>
			<g>
				<path d="M206.7,222.1c-2.1,0-3.9-1.7-3.9-3.9V146c0-2.1,1.7-3.9,3.9-3.9c2.1,0,3.9,1.7,3.9,3.9v72.3
					C210.6,220.4,208.9,222.1,206.7,222.1z"/>
			</g>
		</g>
	</g>
	<g>
		<g>
			<path d="M1217.2,329c-2.1,0-3.9-1.7-3.9-3.9v-122c0-2.1,1.7-3.9,3.9-3.9c2.1,0,3.9,1.7,3.9,3.9v122
				C1221,327.2,1219.3,329,1217.2,329z"/>
		</g>
		<g>
			<path d="M1217.2,329c-1,0-2-0.4-2.7-1.1l-40-40c-1.5-1.5-1.5-4,0-5.5c1.5-1.5,4-1.5,5.5,0l37.3,37.3l37.3-37.3
				c1.5-1.5,4-1.5,5.5,0c1.5,1.5,1.5,4,0,5.5l-40,40C1219.1,328.6,1218.2,329,1217.2,329z"/>
		</g>
	</g>
	<g>
		<g>
			<path d="M960.2,329c-2.1,0-3.9-1.7-3.9-3.9V186.6c0-2.1,1.7-3.9,3.9-3.9c2.1,0,3.9,1.7,3.9,3.9v138.5
				C964,327.2,962.3,329,960.2,329z"/>
		</g>
		<g>
			<path d="M1000.2,230.5c-1,0-2-0.4-2.7-1.1l-37.3-37.3l-37.3,37.3c-1.5,1.5-4,1.5-5.5,0c-1.5-1.5-1.5-4,0-5.5l40-40
				c1.5-1.5,4-1.5,5.5,0l40,40c1.5,1.5,1.5,4,0,5.5C1002.2,230.1,1001.2,230.5,1000.2,230.5z"/>
		</g>
	</g>
	<g>
		<path d="M1240.9,207h-47.6c-2.1,0-3.9-1.7-3.9-3.9c0-2.1,1.7-3.9,3.9-3.9h47.6c2.1,0,3.9,1.7,3.9,3.9
			C1244.8,205.3,1243.1,207,1240.9,207z"/>
	</g>
	<g>
		<path d="M1261.5,489.3h-161.9c-28.5,0-51.7-23.2-51.7-51.7c0-28.5,23.2-51.7,51.7-51.7h176.7c21.5,0,38.9,17.5,38.9,38.9
			c0,21.5-17.5,38.9-38.9,38.9h-176.9c-2.1,0-3.9-1.7-3.9-3.9c0-2.1,1.7-3.9,3.9-3.9h176.9c17.2,0,31.2-14,31.2-31.2
			c0-17.2-14-31.2-31.2-31.2h-176.7c-24.3,0-44,19.7-44,43.9s19.7,43.9,43.9,43.9h161.9c2.1,0,3.9,1.7,3.9,3.9
			C1265.3,487.6,1263.6,489.3,1261.5,489.3z"/>
	</g>
	<g>
		<g>
			<g>
				<path d="M163.3,876.7c-2.1,0-3.9-1.7-3.9-3.9V764.7c0-2.1,1.7-3.9,3.9-3.9c2.1,0,3.9,1.7,3.9,3.9v108.1
					C167.2,875,165.4,876.7,163.3,876.7z"/>
			</g>
			<g>
				<path d="M163.3,876.7c-1,0-2-0.4-2.7-1.1l-35.5-35.5c-1.5-1.5-1.5-4,0-5.5c1.5-1.5,4-1.5,5.5,0l32.7,32.7l32.7-32.7
					c1.5-1.5,4-1.5,5.5,0c1.5,1.5,1.5,4,0,5.5L166,875.6C165.3,876.3,164.3,876.7,163.3,876.7z"/>
			</g>
		</g>
		<g>
			<g>
				<path d="M364.6,876.7c-2.1,0-3.9-1.7-3.9-3.9V764.7c0-2.1,1.7-3.9,3.9-3.9c2.1,0,3.9,1.7,3.9,3.9v108.1
					C368.5,875,366.7,876.7,364.6,876.7z"/>
			</g>
			<g>
				<path d="M400,804.1c-1,0-2-0.4-2.7-1.1l-32.7-32.7l-32.7,32.7c-1.5,1.5-4,1.5-5.5,0c-1.5-1.5-1.5-4,0-5.5l35.5-35.5
					c1.5-1.5,4-1.5,5.5,0l35.5,35.5c1.5,1.5,1.5,4,0,5.5C402,803.7,401,804.1,400,804.1z"/>
			</g>
		</g>
		<g>
			<path d="M234,904H92.6c-2.1,0-3.9-1.7-3.9-3.9v-41.7c0-2.1,1.7-3.9,3.9-3.9c2.1,0,3.9,1.7,3.9,3.9v37.8h133.7v-37.8
				c0-2.1,1.7-3.9,3.9-3.9c2.1,0,3.9,1.7,3.9,3.9v41.7C237.9,902.3,236.1,904,234,904z"/>
		</g>
		<g>
			<path d="M435.3,904H293.9c-2.1,0-3.9-1.7-3.9-3.9v-41.7c0-2.1,1.7-3.9,3.9-3.9c2.1,0,3.9,1.7,3.9,3.9v37.8h133.7v-37.8
				c0-2.1,1.7-3.9,3.9-3.9c2.1,0,3.9,1.7,3.9,3.9v41.7C439.2,902.3,437.4,904,435.3,904z"/>
		</g>
	</g>
	<g>
		<g>
			<g>
				<rect x="162.2" y="602.5" fill="#FFFFFF" width="184.7" height="93.9"/>
				<path d="M346.9,700.3H162.2c-2.1,0-3.9-1.7-3.9-3.9v-93.9c0-2.1,1.7-3.9,3.9-3.9h184.7c2.1,0,3.9,1.7,3.9,3.9v93.9
					C350.8,698.6,349,700.3,346.9,700.3z M166,692.6h177v-86.2H166V692.6z"/>
			</g>
			<g>
				<polygon fill="#FFFFFF" points="124.3,625.5 124.3,673.5 162.2,696.5 162.2,602.5 				"/>
				<path d="M162.2,700.3c-0.7,0-1.4-0.2-2-0.6l-37.8-23c-1.2-0.7-1.9-2-1.9-3.3v-48c0-1.4,0.7-2.6,1.9-3.3l37.8-23
					c1.2-0.7,2.7-0.7,3.9-0.1c1.2,0.7,2,2,2,3.4v93.9c0,1.4-0.8,2.7-2,3.4C163.5,700.2,162.8,700.3,162.2,700.3z M128.2,671.3
					l30.1,18.3v-80.1l-30.1,18.3V671.3z"/>
			</g>
			<g>
				<polygon fill="#FFFFFF" points="113.9,631.8 84.9,649.5 113.9,667.1 124.3,673.5 124.3,625.5 				"/>
				<path d="M124.3,677.4c-0.7,0-1.4-0.2-2-0.6l-39.5-24c-1.2-0.7-1.9-2-1.9-3.3s0.7-2.6,1.9-3.3l39.5-24c1.2-0.7,2.7-0.7,3.9-0.1
					c1.2,0.7,2,2,2,3.4v48c0,1.4-0.8,2.7-2,3.4C125.7,677.2,125,677.4,124.3,677.4z M92.3,649.5l28.1,17.1v-34.2L92.3,649.5z"/>
			</g>
			<g>
				<rect x="346.9" y="602.5" fill="#FFFFFF" width="37.1" height="93.9"/>
				<path d="M383.9,700.3h-37.1c-2.1,0-3.9-1.7-3.9-3.9v-93.9c0-2.1,1.7-3.9,3.9-3.9h37.1c2.1,0,3.9,1.7,3.9,3.9v93.9
					C387.8,698.6,386.1,700.3,383.9,700.3z M350.8,692.6h29.3v-86.2h-29.3V692.6z"/>
			</g>
			<g>
				<rect x="383.9" y="602.5" fill="#FFFFFF" width="34.4" height="93.9"/>
				<path d="M418.3,700.3h-34.4c-2.1,0-3.9-1.7-3.9-3.9v-93.9c0-2.1,1.7-3.9,3.9-3.9h34.4c2.1,0,3.9,1.7,3.9,3.9v93.9
					C422.2,698.6,420.5,700.3,418.3,700.3z M387.8,692.6h26.6v-86.2h-26.6V692.6z"/>
			</g>
		</g>
		<g>
			<line fill="#FFFFFF" x1="162.2" y1="649.5" x2="228.4" y2="649.5"/>
			<path d="M228.4,653.4h-66.2c-2.1,0-3.9-1.7-3.9-3.9c0-2.1,1.7-3.9,3.9-3.9h66.2c2.1,0,3.9,1.7,3.9,3.9
				C232.2,651.6,230.5,653.4,228.4,653.4z"/>
		</g>
		<g>
			<line fill="#FFFFFF" x1="254.5" y1="649.5" x2="278" y2="649.5"/>
			<path d="M278,653.4h-23.4c-2.1,0-3.9-1.7-3.9-3.9c0-2.1,1.7-3.9,3.9-3.9H278c2.1,0,3.9,1.7,3.9,3.9
				C281.8,651.6,280.1,653.4,278,653.4z"/>
		</g>
		<g>
			<line fill="#FFFFFF" x1="304" y1="649.5" x2="346.9" y2="649.5"/>
			<path d="M346.9,653.4H304c-2.1,0-3.9-1.7-3.9-3.9c0-2.1,1.7-3.9,3.9-3.9h42.8c2.1,0,3.9,1.7,3.9,3.9
				C350.8,651.6,349,653.4,346.9,653.4z"/>
		</g>
	</g>
	<g>
		<g>
			<polygon fill="#FFFFFF" points="100.3,386.6 100.3,557.2 256.7,557.2 317.8,620.5 317.8,557.2 347.6,557.2 347.6,386.6 			"/>
			<path d="M317.8,624.4c-1,0-2-0.4-2.8-1.2L255,561H100.3c-2.1,0-3.9-1.7-3.9-3.9V386.6c0-2.1,1.7-3.9,3.9-3.9h247.4
				c2.1,0,3.9,1.7,3.9,3.9v170.5c0,2.1-1.7,3.9-3.9,3.9h-25.9v59.5c0,1.6-1,3-2.4,3.6C318.8,624.3,318.3,624.4,317.8,624.4z
				 M104.2,553.3h152.5c1.1,0,2.1,0.4,2.8,1.2l54.5,56.5v-53.8c0-2.1,1.7-3.9,3.9-3.9h25.9V390.5H104.2V553.3z"/>
		</g>
		<g>
			<g>
				<rect x="185.6" y="465.5" fill="#FFFFFF" width="76.7" height="61.5"/>
				<path d="M262.3,530.8h-76.7c-2.1,0-3.9-1.7-3.9-3.9v-61.5c0-2.1,1.7-3.9,3.9-3.9h76.7c2.1,0,3.9,1.7,3.9,3.9v61.5
					C266.2,529.1,264.5,530.8,262.3,530.8z M189.5,523.1h69v-53.7h-69V523.1z"/>
			</g>
			<g>
				<path fill="#FFFFFF" d="M198,465.5v-22.6c0-14.4,11.6-26,26-26l0,0c14.4,0,26,11.6,26,26"/>
				<path d="M198,469.3c-2.1,0-3.9-1.7-3.9-3.9v-22.6c0-16.5,13.4-29.9,29.9-29.9c16.5,0,29.9,13.4,29.9,29.9c0,2.1-1.7,3.9-3.9,3.9
					c-2.1,0-3.9-1.7-3.9-3.9c0-12.2-9.9-22.1-22.1-22.1c-12.2,0-22.1,9.9-22.1,22.1v22.6C201.9,467.6,200.1,469.3,198,469.3z"/>
			</g>
			<g>
				<path fill="#FFFFFF" d="M234.4,489.3c0,5.8-4.7,10.4-10.4,10.4s-10.4-4.7-10.4-10.4c0-5.8,4.7-10.4,10.4-10.4
					S234.4,483.6,234.4,489.3z"/>
				<path d="M224,503.6c-7.9,0-14.3-6.4-14.3-14.3c0-7.9,6.4-14.3,14.3-14.3c7.9,0,14.3,6.4,14.3,14.3
					C238.3,497.2,231.8,503.6,224,503.6z M224,482.8c-3.6,0-6.5,2.9-6.5,6.5c0,3.6,2.9,6.5,6.5,6.5c3.6,0,6.5-2.9,6.5-6.5
					C230.5,485.7,227.6,482.8,224,482.8z"/>
			</g>
			<g>
				<line fill="#FFFFFF" x1="224" y1="499.7" x2="224" y2="516.6"/>
				<path d="M224,520.5c-2.1,0-3.9-1.7-3.9-3.9v-16.9c0-2.1,1.7-3.9,3.9-3.9c2.1,0,3.9,1.7,3.9,3.9v16.9
					C227.8,518.8,226.1,520.5,224,520.5z"/>
			</g>
		</g>
	</g>
	<g>
		<path d="M675.4,198.5c-2.1,0-3.9-1.7-3.9-3.9V105c0-2.1,1.7-3.9,3.9-3.9c2.1,0,3.9,1.7,3.9,3.9v89.7
			C679.3,196.8,677.5,198.5,675.4,198.5z"/>
	</g>
	<g>
		<path d="M724.6,216.5c-1,0-2-0.4-2.7-1.1c-1.5-1.5-1.5-4,0-5.5l64.7-64.7c1.5-1.5,4-1.5,5.5,0c1.5,1.5,1.5,4,0,5.5l-64.7,64.7
			C726.6,216.1,725.6,216.5,724.6,216.5z"/>
	</g>
	<g>
		<path d="M612.7,200.2c-1,0-2-0.4-2.7-1.1l-42.7-42.7c-1.5-1.5-1.5-4,0-5.5c1.5-1.5,4-1.5,5.5,0l42.7,42.7c1.5,1.5,1.5,4,0,5.5
			C614.7,199.8,613.7,200.2,612.7,200.2z"/>
	</g>
	<g>
		<path d="M850.3,859H568.5c-2.1,0-3.9-1.7-3.9-3.9s1.7-3.9,3.9-3.9h281.8c2.1,0,3.9,1.7,3.9,3.9S852.4,859,850.3,859z"/>
	</g>
</g>
</svg>
