<?xml version="1.0" encoding="utf-8"?>
<!-- Generator: Adobe Illustrator 16.0.0, SVG Export Plug-In . SVG Version: 6.00 Build 0)  -->
<!DOCTYPE svg PUBLIC "-//W3C//DTD SVG 1.1//EN" "http://www.w3.org/Graphics/SVG/1.1/DTD/svg11.dtd" [
	<!ENTITY ns_flows "http://ns.adobe.com/Flows/1.0/">
	<!ENTITY ns_extend "http://ns.adobe.com/Extensibility/1.0/">
	<!ENTITY ns_ai "http://ns.adobe.com/AdobeIllustrator/10.0/">
	<!ENTITY ns_graphs "http://ns.adobe.com/Graphs/1.0/">
]>
<svg version="1.1" id="Layer_1" xmlns:x="&ns_extend;" xmlns:i="&ns_ai;" xmlns:graph="&ns_graphs;"
	 xmlns="http://www.w3.org/2000/svg" xmlns:xlink="http://www.w3.org/1999/xlink" xmlns:a="http://ns.adobe.com/AdobeSVGViewerExtensions/3.0/"
	 x="0px" y="0px" width="1400px" height="1400px" viewBox="0 0 1400 1400" style="enable-background:new 0 0 1400 1400;"
	 xml:space="preserve">
<g>
	<polygon style="fill:#00BABE;" points="0,0 0,1399.996 1399.995,1399.996 1400,0.002 	"/>
	<path style="fill:#008893;" d="M224.636,547.808l271.051-271.057c40.955-40.956,88.195,13.848,51.04,51.002L275.646,598.817
		C234.706,639.754,187.463,584.968,224.636,547.808z"/>
	<path style="fill:#001F3D;" d="M1066.032,765.822c-18.35,18.346-144.77,144.77-189.279,189.277l150.064,150.064
		c54.777-54.775,176.945-176.939,189.283-189.277C1322.206,809.775,1170.418,661.437,1066.032,765.822z"/>
	<path style="fill:#FFF3D1;" d="M811.682,529.561c0,0,233.492-233.491,235.504-235.507c22.207-22.204,58.184-22.19,80.391,0.004
		c22.201,22.191,22.195,58.186,0,80.387c-1.225,1.22-88.66,88.654-101.875,101.874c-13.219,13.22,8.615,32.123,20.369,20.37
		c11.752-11.752,46.855-46.856,47.275-47.277c8.809-8.811,23.086-8.804,31.898,0.003c8.805,8.805,8.811,23.089,0.004,31.898
		c-0.809,0.804-180.941,180.933-180.941,180.933L811.682,529.561z"/>
	<path style="fill:#001F3D;" d="M499.4,1219.125c-4.287,4.289-11.231,4.285-15.516,0.004c-4.284-4.281-4.283-11.23,0.004-15.521
		c0.953-0.945,396.405-396.4,397.618-397.627c4.283-4.277,11.232-4.277,15.516,0.004c4.285,4.285,4.285,11.232,0.004,15.52
		C895.801,822.723,500.353,1218.174,499.4,1219.125z"/>
	<path style="fill:#FFF3D1;" d="M906.454,1225.533c29.486-29.486,163.334-163.33,174.697-174.703
		c44.092-44.094-10.869-97.139-54.01-54.008c-17.326,17.336-140.105,140.107-140.105,140.107
		c-16.959,16.963-43.236-9.318-26.277-26.287c0,0,178.498-178.49,194.494-194.488c24.527-24.521-8.213-59.047-33.967-33.277
		c-17.674,17.666-62.219-10.09-62.219-10.09c-66.271,66.275-183.809,183.807-202.684,202.68
		C650.276,1181.576,802.065,1329.918,906.454,1225.533z"/>
	<path style="fill:#F26922;" d="M918.5,913.361l259.705-259.703c29.061-29.063,62.58,9.825,36.221,36.189L954.694,949.557
		C925.645,978.607,892.122,939.732,918.5,913.361z"/>
	<path style="fill:#FFC907;" d="M269.651,933.188l37.078-37.072c14.437-14.441,31.09,4.877,17.992,17.986l-37.087,37.082
		C273.199,965.615,256.54,946.299,269.651,933.188z"/>
	<path style="fill:#FFC907;" d="M1103.469,826.871l149.428-149.431c7.969-7.971,17.164,2.693,9.932,9.93l-149.436,149.425
		C1105.424,844.764,1096.231,834.102,1103.469,826.871z"/>
	<path style="fill:#008893;" d="M261.804,226.101l87.916-87.919c7.97-7.972,17.164,2.692,9.932,9.929l-87.922,87.915
		C263.76,243.994,254.566,233.332,261.804,226.101z"/>
	<path style="fill:#008893;" d="M825.28,1146.127l277.914-277.918c21.098-21.102,45.432,7.131,26.289,26.283L851.549,1172.4
		C830.456,1193.494,806.122,1165.271,825.28,1146.127z"/>
	<path style="fill:#FFC907;" d="M246.828,353.242l107.005-107.008c11.67-11.675,25.127,3.942,14.541,14.537l-107.01,107.006
		C249.693,379.443,236.234,363.833,246.828,353.242z"/>
	<path style="fill:#001F3D;" d="M1124.448,1174.156c-14.057,14.037-36.822,14.033-50.879-0.006
		c-14.037-14.041-14.037-36.82,0-50.867c3.135-3.131,70.811-70.807,74.826-74.813c14.049-14.053,36.826-14.053,50.859-0.002
		c14.057,14.043,14.059,36.822,0.014,50.865C1195.249,1103.346,1127.571,1171.025,1124.448,1174.156z"/>
	<path style="fill:#F26922;" d="M609.719,569.426c-57.835-57.799-94.533-94.5-152.464-152.202
		c-57.837,57.836-162.598,162.579-169.43,169.412c-41.038,41.041,13.304,108.465,58.891,62.875l33.463,149.476
		C380.178,798.986,551.865,627.28,609.719,569.426z"/>
	<path style="fill:#FFF3D1;" d="M218.629,1048.424c42.971-42.963,93.274-93.273,124.071-124.072
		c30.501-30.5-16.756-77.756-47.257-47.258c-4.559,4.553-20.532,20.529-26.493,26.488c-60.19,60.195-146.585-29.723-88.154-88.156
		c35.513-35.508,191.467-191.462,202.002-201.997c10.532-10.527,26.447,6.263,16.354,16.36
		c-10.094,10.086-67.687,67.678-67.687,67.678c-4.56,4.572-4.563,11.976,0.002,16.552c4.573,4.574,11.986,4.574,16.558,0
		c0,0,253.579-253.594,321.293-321.294c32.378,13.113,99.753,19.798,187.076-59.319l146.857,146.857l-633.606,629.811
		c0,0-56.464-54.785-101.897-9.352C234.657,1133.814,185.333,1081.721,218.629,1048.424z"/>
	<path style="fill:#001F3D;" d="M387.326,429.592l72.508,72.515c0,0,170.671-170.661,172.491-172.479
		c20.021-20.033,20.022-52.5-0.006-72.513c-20.024-20.025-52.479-20.034-72.514-0.009
		C557.987,258.927,387.326,429.592,387.326,429.592z"/>
	<path style="fill:#004957;" d="M387.095,429.825c21.089-21.088,89.266-89.265,89.266-89.265
		c-48.824,48.823,21.907,123.128,71.563,73.468c11.494-11.496,204.485-204.475,215.975-215.974
		c24.723-24.721,54.902,9.521,32.756,31.67c-3.516,3.518-146.774,146.772-146.774,146.772l50.511,50.658
		c0,0-111.283,111.3-157.978,157.995C435.587,691.979,290.027,526.893,387.095,429.825z"/>
	<path style="fill:#FFC907;" d="M380.606,746.961c22.211-22.219,173.478-173.476,209.604-209.6
		c50.473-50.471,121.228,12.838,67.035,67.032c-32.546,32.553-186.97,186.958-209.607,209.597
		C397.661,863.967,335.639,791.92,380.606,746.961z"/>
	<path style="fill:#FFC907;" d="M1177.022,428.833l69.189-69.177c24.092-24.099,51.873,8.138,30.012,29.987l-69.189,69.193
		C1182.95,482.916,1155.159,450.691,1177.022,428.833z"/>
	<path style="fill:#004957;" d="M536.992,663.977l157.294-157.289c30.718-30.717,66.152,10.376,38.279,38.25l-157.314,157.3
		C544.548,732.941,509.112,691.85,536.992,663.977z"/>
	<path style="fill:#008893;" d="M597.804,603.166l96.482-96.477c30.718-30.717,66.152,10.376,38.279,38.25l-96.501,96.488
		C605.36,672.129,569.924,631.038,597.804,603.166z"/>
	<path style="fill:#001F3D;" d="M392.597,895.859l50.574-50.576c23.629-23.631,50.884,7.99,29.443,29.428l-50.585,50.58
		C398.409,948.906,371.152,917.297,392.597,895.859z"/>
	<path style="fill:#FFF3D1;" d="M512.585,580.943c18.538,18.546,48.599,18.541,67.147-0.002
		c4.127-4.125,370.125-370.132,375.42-375.419c29.855-29.854-6.701-60.407-33.553-33.553
		c-0.068,0.066-162.836,162.833-173.762,173.761c-21.977,21.972-57.673-9.509-33.598-33.593c0,0-198.517,198.517-201.653,201.654
		C494.037,532.333,494.043,562.403,512.585,580.943z"/>
	<path style="fill:#FFC907;" d="M644.415,829.824c2.005-2.002,45.777-45.773,94.808-94.803c5.955-5.959-27.281-46.902-7.168-67.017
		c36.111-36.11-12.48-78.139-41.101-49.521C669.997,639.44,565.817,743.619,562.016,747.42
		C503.942,805.492,585.03,889.213,644.415,829.824z"/>
	<path style="fill:#F26922;" d="M646.413,663.026c10.165-10.164,34.364-34.365,44.541-44.543
		c28.621-28.617,77.207,13.406,41.101,49.521c-6.176,6.174-31.168,31.17-40.332,40.333
		C660.812,739.25,618.026,691.413,646.413,663.026z"/>
	<path style="fill:#F26922;" d="M630.763,1201.145c6.106-6.113,303.195-303.197,373.554-373.559
		c-19.301-19.293-37.395-37.393-56.697-56.686c-64.926,64.932-365.552,365.557-373.551,373.555
		C535.756,1182.771,594.315,1237.588,630.763,1201.145z"/>
	<path style="fill:#004957;" d="M415.79,1156.678c4.599-4.607,125.225-125.236,125.225-125.236
		c20.105-20.094-8.588-50.74-29.663-29.668c0,0-255.051,255.057-276.833,276.838c-50.217,50.213-120.163-24.494-73.785-70.871
		c22.194-22.199,344.625-344.635,344.625-344.635c29.927-29.918,69.434,12.586,41.007,41.01
		c-7.83,7.836-141.72,141.723-141.72,141.723c-8.054,8.043,3.349,20.451,11.896,11.9l282.006-281.996
		c12.654-12.658-4.17-31.375-17.045-18.502c-14.375,14.373-42.066,42.064-51.409,51.4c-14.413,14.414-32.587-6.092-19.335-19.342
		c8-8.004,175.111-175.098,180.295-180.283c27.076-27.079,66.324,12.605,38.512,40.408l104.396,104.103
		c0,0-386.978,386.984-460.658,460.664C429.755,1257.74,371.197,1201.271,415.79,1156.678z"/>
	<path style="fill:#001F3D;" d="M325.394,1187.74c10.757-10.758,185.958-185.967,185.958-185.967
		c21.075-21.072,49.768,9.574,29.663,29.668c0,0-175.943,175.943-185.958,185.967
		C336.329,1236.139,304.529,1208.598,325.394,1187.74z"/>
	<path style="fill:#FFC907;" d="M510.671,346.119l39.952-39.949c6.233-6.232,13.419,2.104,7.762,7.762l-39.949,39.955
		C512.205,360.122,505.013,351.779,510.671,346.119z"/>
	<path style="fill:#F26922;" d="M916.708,1258.836l39.955-39.949c6.23-6.232,13.418,2.104,7.76,7.762l-39.949,39.951
		C918.241,1272.836,911.051,1264.492,916.708,1258.836z"/>
	<path style="fill:#F26922;" d="M156.561,992.627l39.953-39.953c6.236-6.234,13.422,2.104,7.764,7.762l-39.95,39.957
		C158.094,1006.629,150.905,998.285,156.561,992.627z"/>
	<path style="fill:#001F3D;" d="M325.667,759l43.79-43.783c6.832-6.834,14.723,2.307,8.513,8.508l-43.792,43.791
		C327.352,774.342,319.46,765.201,325.667,759z"/>
	<path style="fill:#008893;" d="M472.524,1319.59l43.79-43.783c6.832-6.834,14.723,2.307,8.513,8.508l-43.792,43.791
		C474.209,1334.932,466.318,1325.791,472.524,1319.59z"/>
	<path style="fill:#F26922;" d="M1142.944,389.555l43.795-43.785c6.83-6.834,14.721,2.306,8.508,8.507l-43.785,43.793
		C1144.631,404.896,1136.741,395.753,1142.944,389.555z"/>
	<path style="fill:#F26922;" d="M720.729,810.756l22.746-22.75c8.326-8.326,17.93,2.809,10.375,10.369l-22.754,22.75
		C722.78,829.453,713.167,818.314,720.729,810.756z"/>
	<path style="fill:#001F3D;" d="M483.168,470.602l22.75-22.757c8.331-8.319,17.932,2.816,10.375,10.373l-22.758,22.755
		C485.217,489.298,475.609,478.159,483.168,470.602z"/>
	<path style="fill:#F26922;" d="M98.688,747.555l22.751-22.756c8.33-8.32,17.93,2.813,10.376,10.371l-22.76,22.758
		C100.738,766.25,91.131,755.111,98.688,747.555z"/>
	<path style="fill:#FFFCDF;" d="M399.938,476.017l22.755-22.756c8.327-8.319,17.934,2.815,10.374,10.372l-22.76,22.757
		C401.992,494.713,392.384,483.574,399.938,476.017z"/>
	<path style="fill:#F26922;" d="M392.911,1223.043l22.749-22.764c8.334-8.311,17.93,2.82,10.374,10.375l-22.755,22.762
		C394.959,1241.74,385.355,1230.6,392.911,1223.043z"/>
	<path style="fill:#001F3D;" d="M917.397,1152.383l22.752-22.758c8.328-8.324,17.93,2.809,10.369,10.375l-22.754,22.752
		C919.444,1171.08,909.838,1159.941,917.397,1152.383z"/>
	<path style="fill:#008893;" d="M164.117,362.292l22.751-22.758c8.328-8.323,17.93,2.81,10.37,10.375l-22.754,22.752
		C166.163,380.991,156.559,369.851,164.117,362.292z"/>
	<path style="fill:#F26922;" d="M492.059,234.108l22.751-22.758c8.327-8.317,17.93,2.815,10.372,10.375l-22.757,22.755
		C494.106,252.806,484.501,241.665,492.059,234.108z"/>
	<path style="fill:#F26922;" d="M1267.584,982.725l22.75-22.758c8.33-8.318,17.928,2.814,10.373,10.371l-22.76,22.76
		C1269.631,1001.426,1260.026,990.281,1267.584,982.725z"/>
	<path style="fill:#FFC907;" d="M1221.454,1186.076l22.75-22.756c8.33-8.32,17.93,2.814,10.375,10.371l-22.76,22.758
		C1223.502,1204.777,1213.895,1193.633,1221.454,1186.076z"/>
	<path style="fill:#FFC907;" d="M1173.715,980.246l39.795-39.797c8.326-8.32,17.93,2.814,10.367,10.371l-39.793,39.801
		C1175.76,998.943,1166.157,987.805,1173.715,980.246z"/>
	<path style="fill:#008893;" d="M632.354,170.266l73.359-73.361c8.326-8.32,17.93,2.814,10.367,10.372l-73.357,73.364
		C634.399,188.964,624.795,177.825,632.354,170.266z"/>
	<path style="fill:#001F3D;" d="M144.813,1062.094l22.751-22.756c8.329-8.318,17.93,2.814,10.374,10.373l-22.758,22.756
		C146.862,1080.791,137.256,1069.652,144.813,1062.094z"/>
	<path style="fill:#FFC907;" d="M125.512,580.958l22.751-22.757c8.328-8.322,17.93,2.812,10.371,10.373l-22.757,22.754
		C127.559,599.656,117.954,588.515,125.512,580.958z"/>
	<path style="fill:#FFC907;" d="M849.165,184.063l22.752-22.756c8.326-8.322,17.928,2.812,10.371,10.373l-22.754,22.752
		C851.213,202.763,841.606,191.622,849.165,184.063z"/>
	<path style="fill:#001F3D;" d="M390.065,373.562l55.287-55.293c8.328-8.322,17.928,2.813,10.372,10.372l-55.291,55.292
		C392.113,392.259,382.507,381.12,390.065,373.562z"/>
	<path style="fill:#008893;" d="M837.842,734.654c18.227-18.223-5.605-42.365-23.383-24.59c0,0-36.172,36.176-42.203,42.205
		c-15.867,15.863-38.629-6.902-22.766-22.766c7.596-7.6,95.639-95.635,103.295-103.291
		c85.473-85.473-51.863-226.169-139.016-139.016c0,0,277.594-277.581,311.75-311.746c51.393-51.393,120.002,20.183,70.293,69.89
		c-6.436,6.438-140.428,140.438-144.895,144.897c-86.518,86.525,40.299,225.126,132.711,132.712
		c70.459-70.455,183.402,41.88,112.645,112.643C1133.358,698.51,873.25,958.609,851.122,980.74
		c-44.273,44.275-117.938-26.416-72.555-71.799c11.844-11.842,44.703-44.697,44.703-44.697
		c11.709-11.709-5.154-26.975-16.838-15.291c-9.387,9.387-143.203,143.205-168.584,168.584
		c-29.792,29.791-69.065-13.824-41.094-41.791C624.724,947.77,830.967,741.535,837.842,734.654z"/>
	<path style="fill:#FFFCDF;" d="M616.106,616.066l86.035-86.035c6.17-6.172,13.297,2.073,7.699,7.689l-86.045,86.032
		C617.63,629.921,610.503,621.657,616.106,616.066z"/>
	<path style="fill:#FFC907;" d="M778.567,908.941c11.844-11.842,44.703-44.697,44.703-44.697c0.006-0.004,0.006-0.01,0.008-0.014
		c27.002-26.992,48.789-48.789,48.789-48.789c15.646-15.639,33.691,5.291,19.5,19.498c0,0-55.844,55.834-69.41,69.406
		c-13.57,13.57,5.037,31.93,18.486,18.484c3.197-3.201,111.82-111.822,126.531-126.539c25.205-25.203,60.377,8.025,34.201,34.199
		c-15.217,15.217-131.969,131.961-150.254,150.25C806.848,1025.016,733.184,954.324,778.567,908.941z"/>
	<path style="fill:#001F3D;" d="M967.381,708.811l61.914-61.922c21.561-21.548,46.426,7.288,26.867,26.854l-61.928,61.906
		C972.688,757.213,947.815,728.361,967.381,708.811z"/>
	<path style="fill:#FFC907;" d="M857.887,756.279l102.867-102.869c11.219-11.224,24.162,3.789,13.986,13.972L871.864,770.25
		C860.647,781.469,847.702,766.455,857.887,756.279z"/>
	<path style="fill:#F26922;" d="M345.172,837.852l70.318-70.322c11.226-11.223,24.168,3.789,13.988,13.973l-70.33,70.326
		C347.93,863.045,334.991,848.029,345.172,837.852z"/>
	<path style="fill:#FFC907;" d="M1007.965,412.035l60.41-60.405c17.125-17.124,36.867,5.788,21.336,21.32l-60.418,60.406
		C1012.178,450.469,992.428,427.57,1007.965,412.035z"/>
	<path style="fill:#F26922;" d="M1050.17,369.829l18.205-18.199c17.125-17.124,36.867,5.788,21.336,21.32l-18.213,18.202
		C1054.385,408.265,1034.631,385.367,1050.17,369.829z"/>
	<path style="fill:#F26922;" d="M237.743,458.969l66.092-66.095c30.466-30.467,65.608,10.301,37.969,37.94l-66.113,66.101
		C245.234,527.368,210.091,486.613,237.743,458.969z"/>
	<path style="fill:#F26922;" d="M1225.223,812.598l45.084-45.088c20.775-20.787,44.748,7.023,25.895,25.877l-45.1,45.086
		C1230.329,859.248,1206.352,831.451,1225.223,812.598z"/>
	<path style="fill:#004957;" d="M411.509,182.79l45.084-45.087c20.775-20.788,44.748,7.023,25.896,25.877l-45.1,45.086
		C416.614,229.44,392.638,201.643,411.509,182.79z"/>
	<path style="fill:#F26922;" d="M874.36,639.54l56.883-56.894c26.221-26.231,56.475,8.866,32.689,32.656l-56.92,56.897
		C880.799,698.417,850.549,663.336,874.36,639.54z"/>
	<path style="fill:#001F3D;" d="M192.236,604.454l45.077-45.082c20.776-20.787,44.757,7.024,25.898,25.878l-45.099,45.085
		C197.341,651.108,173.366,623.315,192.236,604.454z"/>
	<path style="fill:#FFC907;" d="M685.094,1193.992l27.827-27.832c30.467-30.467,65.609,10.297,37.971,37.936l-27.852,27.84
		C692.581,1262.395,657.436,1221.639,685.094,1193.992z"/>
	<path style="fill:#004957;" d="M864.262,953.998l99.24-99.238c10.875-10.879,23.43,3.674,13.557,13.545l-99.248,99.244
		C866.934,978.422,854.391,963.867,864.262,953.998z"/>
	<path style="fill:#F26922;" d="M219.016,1126.467L319.082,1026.4c17.019-17.016,36.645,5.742,21.209,21.178l-100.085,100.08
		C223.195,1164.664,203.569,1141.908,219.016,1126.467z"/>
	<path style="fill:#F26922;" d="M593.063,451.588c-7.087,7.076-18.563,7.07-25.649-0.005c-7.077-7.081-7.078-18.566-0.004-25.645
		c1.584-1.575,41.665-41.664,43.693-43.684c7.076-7.089,18.561-7.084,25.639,0c7.088,7.081,7.09,18.567,0.008,25.642
		C634.722,409.922,594.632,450.002,593.063,451.588z"/>
	<path style="fill:#FFC907;" d="M435.958,992.25c-5.416,5.414-14.193,5.41-19.612-0.002c-5.41-5.412-5.41-14.195-0.002-19.615
		c1.21-1.197,98.223-98.215,99.766-99.758c5.417-5.412,14.195-5.414,19.606,0c5.423,5.416,5.42,14.195,0.009,19.607
		C534.179,894.029,437.166,991.041,435.958,992.25z"/>
	<path style="fill:#F26922;" d="M482.547,945.66c-5.419,5.416-14.192,5.41-19.611,0c-5.413-5.412-5.413-14.195,0-19.617
		c1.206-1.201,51.63-51.625,53.173-53.168c5.417-5.412,14.195-5.414,19.606,0c5.423,5.416,5.42,14.195,0.009,19.607
		C534.179,894.029,483.755,944.453,482.547,945.66z"/>
	<path style="fill:#FFFCDF;" d="M901.747,349.733c-1.846,1.827-4.832,1.826-6.672-0.008c-1.84-1.84-1.84-4.827,0-6.67
		c0.416-0.409,113.229-113.225,113.754-113.75c1.846-1.849,4.826-1.849,6.672,0c1.842,1.838,1.842,4.826-0.002,6.669
		C1014.975,236.501,902.161,349.314,901.747,349.733z"/>
	<path style="fill:#001F3D;" d="M1007.891,294.676c-3.213,3.21-8.416,3.21-11.631-0.004c-3.215-3.215-3.215-8.417-0.008-11.631
		c0.725-0.711,92.615-92.611,93.531-93.53c3.215-3.209,8.422-3.209,11.633,0.004c3.217,3.206,3.215,8.423,0,11.63
		C1100.502,202.06,1008.608,293.959,1007.891,294.676z"/>
	<path style="fill:#001F3D;" d="M855.987,799.189c-1.852,1.854-4.844,1.846-6.695,0c-1.84-1.85-1.84-4.84,0-6.695
		c0.418-0.406,58.414-58.41,58.951-58.936c1.834-1.852,4.832-1.854,6.684-0.004c1.848,1.848,1.848,4.844,0,6.688
		C914.401,740.773,856.395,798.775,855.987,799.189z"/>
	<path style="fill:#FFC907;" d="M556.526,542.498c-2.328,2.325-6.105,2.323-8.431,0c-2.324-2.333-2.323-6.104,0-8.432
		c0.519-0.52,71.388-71.39,72.05-72.054c2.328-2.33,6.099-2.328,8.438,0c2.321,2.336,2.322,6.104-0.005,8.43
		C627.91,471.107,557.046,541.984,556.526,542.498z"/>
	<path style="fill:#008893;" d="M379.569,1144.129c-2.79,2.789-7.321,2.785-10.113,0c-2.784-2.797-2.784-7.322,0.001-10.109
		c0.622-0.629,85.614-85.625,86.408-86.418c2.793-2.791,7.316-2.791,10.117,0c2.788,2.803,2.788,7.322-0.002,10.113
		C465.174,1058.51,380.191,1143.516,379.569,1144.129z"/>
	<path style="fill:#FFC907;" d="M204.105,758.553c-2.794,2.793-7.323,2.789-10.115,0c-2.782-2.795-2.782-7.314,0.002-10.107
		c0.624-0.621,66.303-66.308,67.104-67.105c2.79-2.791,7.312-2.789,10.113,0c2.789,2.805,2.789,7.32,0,10.112
		C270.404,692.249,204.729,757.941,204.105,758.553z"/>
	<path style="fill:#F26922;" d="M624.737,1000.908c-3.016,3.018-7.903,3.018-10.919,0c-3.015-3.01-3.012-7.904-0.001-10.924
		c0.671-0.67,135.289-135.289,136.154-136.15c3.008-3.016,7.906-3.014,10.918,0c3.016,3.014,3.016,7.906,0.002,10.922
		C760.028,865.615,625.41,1000.236,624.737,1000.908z"/>
	<path style="fill:#F26922;" d="M803.042,505.438c-3.588,3.587-9.408,3.585-12.992-0.003c-3.584-3.583-3.584-9.407,0-13
		c0.795-0.795,160.984-160.984,162.01-162.008c3.584-3.584,9.406-3.586,12.998,0.002c3.588,3.581,3.588,9.404,0,12.993
		C964.028,344.445,803.84,504.636,803.042,505.438z"/>
	<path style="fill:#FFFCDF;" d="M636.27,1140.465c-4.753,4.754-12.455,4.754-17.209,0c-4.753-4.748-4.751-12.463-0.002-17.215
		c1.062-1.049,70.146-70.141,71.509-71.5c4.749-4.754,12.452-4.75,17.209,0.002c4.746,4.748,4.748,12.459-0.004,17.213
		C706.415,1070.32,637.334,1139.406,636.27,1140.465z"/>
	<path style="fill:#FFC907;" d="M703.676,667.043c-4.754,4.754-12.462,4.754-17.218,0c-4.748-4.745-4.746-12.461-0.002-17.213
		c1.064-1.05,70.148-70.141,71.513-71.499c4.748-4.753,12.455-4.753,17.205-0.001c4.75,4.75,4.75,12.461-0.002,17.21
		C773.819,596.897,704.735,665.985,703.676,667.043z"/>
	<path style="fill:#008893;" d="M363.774,665.167l-32.311,32.301c-4.56,4.572-4.563,11.976,0.002,16.552
		c4.573,4.574,11.986,4.574,16.558,0l32.305-32.302c4.568-4.57,4.568-11.979-0.004-16.553
		C375.755,660.592,368.336,660.592,363.774,665.167z"/>
	<path style="fill:#FFFCDF;" d="M1159.549,600.641l-121.518,121.508c-4.563,4.57-4.564,11.975,0,16.551
		c4.574,4.574,11.984,4.574,16.561,0l121.51-121.508c4.568-4.571,4.568-11.98-0.008-16.553
		C1171.528,596.065,1164.112,596.065,1159.549,600.641z"/>
	<path style="fill:#F26922;" d="M908.116,481.771l22.752-22.747c8.324-8.324,17.92,2.806,10.371,10.372l-22.75,22.755
		C910.163,500.474,900.559,489.334,908.116,481.771z"/>
	<path style="fill:#F26922;" d="M477.956,723.018c-5.587,5.578-14.635,5.578-20.22,0c-5.582-5.584-5.58-14.635-0.004-20.217
		c1.251-1.242,609.585-609.583,611.179-611.172c5.582-5.588,14.633-5.587,20.215-0.001c5.584,5.584,5.586,14.632,0.002,20.21
		C1087.538,113.438,479.198,721.773,477.956,723.018z"/>
	<path style="fill:#004957;" d="M804.633,396.34c-5.586,5.579-14.635,5.579-20.219,0c-5.584-5.584-5.58-14.634-0.004-20.218
		c1.25-1.243,282.906-282.905,284.5-284.494c5.582-5.588,14.633-5.587,20.215-0.001c5.584,5.584,5.586,14.632,0.002,20.21
		C1087.538,113.438,805.875,395.096,804.633,396.34z"/>
	<path style="fill:#FFC907;" d="M802.479,722.043c-5.514,5.52-26.477,26.477-30.223,30.227
		c-15.867,15.863-38.629-6.902-22.766-22.766c2.637-2.633,25.24-25.234,30.229-30.221
		C793.797,685.194,817.383,707.148,802.479,722.043z"/>
	<path style="fill:#FFC907;" d="M948.336,1042.225c-5.514,5.521-26.477,26.477-30.221,30.227
		c-15.869,15.865-38.631-6.9-22.766-22.766c2.635-2.633,25.238-25.234,30.227-30.221
		C939.655,1005.375,963.241,1027.332,948.336,1042.225z"/>
	<path style="fill:#F26922;" d="M616.359,1288.629l80.831-80.836c8.329-8.318,17.926,2.816,10.368,10.373l-80.833,80.836
		C618.404,1307.324,608.799,1296.188,616.359,1288.629z"/>
	<path style="fill:#F26922;" d="M1032.694,662.582l39.959-39.949c6.227-6.233,13.414,2.103,7.754,7.761l-39.947,39.955
		C1034.227,676.585,1027.034,668.239,1032.694,662.582z"/>
	<path style="fill:#008893;" d="M1102.897,1239.727l39.959-39.949c6.227-6.234,13.414,2.102,7.754,7.76l-39.947,39.955
		C1104.43,1253.73,1097.237,1245.383,1102.897,1239.727z"/>
	<path style="fill:#008893;" d="M806.411,1086.557l62.932-62.922c6.229-6.232,13.414,2.102,7.754,7.762l-62.92,62.926
		C807.946,1100.561,800.75,1092.213,806.411,1086.557z"/>
</g>
</svg>
