<?xml version="1.0" encoding="utf-8"?>
<!-- Generator: Adobe Illustrator 16.0.0, SVG Export Plug-In . SVG Version: 6.00 Build 0)  -->
<!DOCTYPE svg PUBLIC "-//W3C//DTD SVG 1.1//EN" "http://www.w3.org/Graphics/SVG/1.1/DTD/svg11.dtd">
<svg version="1.1" id="Layer_1" xmlns="http://www.w3.org/2000/svg" xmlns:xlink="http://www.w3.org/1999/xlink" x="0px" y="0px"
	 width="1400px" height="980px" viewBox="0 0 1400 980" enable-background="new 0 0 1400 980" xml:space="preserve">
<g>
	<g>
		<rect fill="#FFFFFF" width="1399.993" height="980"/>
	</g>
</g>
<g>
	<g>
		<g>
			<path d="M956.033,314.671H799.049c-1.269,0-2.303-1.03-2.303-2.304v-84.699c0-1.273,1.034-2.303,2.303-2.303h156.984
				c1.273,0,2.304,1.03,2.304,2.303v84.699C958.337,313.641,957.307,314.671,956.033,314.671z M801.353,310.064H953.73v-80.092
				H801.353V310.064z"/>
		</g>
		<g>
			<path d="M799.049,314.671H443.771c-1.269,0-2.304-1.03-2.304-2.304v-84.699c0-1.273,1.035-2.303,2.304-2.303h355.278
				c1.278,0,2.304,1.03,2.304,2.303v84.699C801.353,313.641,800.327,314.671,799.049,314.671z M446.074,310.064h350.672v-80.092
				H446.074V310.064z"/>
		</g>
		<g>
			<path d="M956.033,754.63H443.771c-1.269,0-2.304-1.03-2.304-2.303v-439.96c0-1.273,1.035-2.303,2.304-2.303h512.263
				c1.273,0,2.304,1.03,2.304,2.303v439.96C958.337,753.6,957.307,754.63,956.033,754.63z M446.074,750.023H953.73V314.671H446.074
				V750.023z"/>
		</g>
	</g>
	<g>
		<path d="M848.305,272.321h-17.43c-1.273,0-2.303-1.03-2.303-2.303c0-1.273,1.029-2.304,2.303-2.304h17.43
			c1.273,0,2.304,1.03,2.304,2.304C850.608,271.291,849.578,272.321,848.305,272.321z"/>
	</g>
	<g>
		<path d="M774.997,272.321H467.822c-1.278,0-2.304-1.03-2.304-2.303c0-1.273,1.026-2.304,2.304-2.304h307.175
			c1.269,0,2.304,1.03,2.304,2.304C777.301,271.291,776.266,272.321,774.997,272.321z"/>
	</g>
	<g>
		<path d="M886.258,272.321h-17.429c-1.273,0-2.304-1.03-2.304-2.303c0-1.273,1.03-2.304,2.304-2.304h17.429
			c1.273,0,2.304,1.03,2.304,2.304C888.562,271.291,887.531,272.321,886.258,272.321z"/>
	</g>
	<g>
		<path d="M924.212,272.321h-17.425c-1.273,0-2.304-1.03-2.304-2.303c0-1.273,1.03-2.304,2.304-2.304h17.425
			c1.278,0,2.304,1.03,2.304,2.304C926.516,271.291,925.49,272.321,924.212,272.321z"/>
	</g>
	<g>
		<path d="M670.661,440.153h-17.429c-1.273,0-2.304-1.03-2.304-2.303c0-1.273,1.03-2.304,2.304-2.304h17.429
			c1.273,0,2.303,1.03,2.303,2.304C672.964,439.123,671.934,440.153,670.661,440.153z"/>
	</g>
	<g>
		<path d="M708.619,440.153h-17.43c-1.277,0-2.303-1.03-2.303-2.303c0-1.273,1.026-2.304,2.303-2.304h17.43
			c1.269,0,2.303,1.03,2.303,2.304C710.922,439.123,709.888,440.153,708.619,440.153z"/>
	</g>
	<g>
		<path d="M746.572,440.153h-17.429c-1.273,0-2.304-1.03-2.304-2.303c0-1.273,1.03-2.304,2.304-2.304h17.429
			c1.273,0,2.304,1.03,2.304,2.304C748.876,439.123,747.846,440.153,746.572,440.153z"/>
	</g>
	<g>
		<path d="M1142.635,397.282h-12.25c-1.273,0-2.304-1.03-2.304-2.303c0-1.273,1.03-2.304,2.304-2.304h12.25
			c1.273,0,2.304,1.03,2.304,2.304C1144.938,396.251,1143.908,397.282,1142.635,397.282z"/>
	</g>
	<g>
		<path d="M1169.332,397.282h-12.255c-1.273,0-2.304-1.03-2.304-2.303c0-1.273,1.03-2.304,2.304-2.304h12.255
			c1.273,0,2.304,1.03,2.304,2.304C1171.636,396.251,1170.605,397.282,1169.332,397.282z"/>
	</g>
	<g>
		<path d="M1196.029,397.282h-12.26c-1.273,0-2.303-1.03-2.303-2.303c0-1.273,1.029-2.304,2.303-2.304h12.26
			c1.273,0,2.304,1.03,2.304,2.304C1198.333,396.251,1197.303,397.282,1196.029,397.282z"/>
	</g>
	<g>
		<path d="M216.223,397.282h-12.26c-1.273,0-2.304-1.03-2.304-2.303c0-1.273,1.03-2.304,2.304-2.304h12.26
			c1.273,0,2.303,1.03,2.303,2.304C218.526,396.251,217.496,397.282,216.223,397.282z"/>
	</g>
	<g>
		<path d="M242.916,397.282h-12.255c-1.273,0-2.304-1.03-2.304-2.303c0-1.273,1.03-2.304,2.304-2.304h12.255
			c1.273,0,2.303,1.03,2.303,2.304C245.219,396.251,244.189,397.282,242.916,397.282z"/>
	</g>
	<g>
		<path d="M269.613,397.282h-12.26c-1.273,0-2.303-1.03-2.303-2.303c0-1.273,1.03-2.304,2.303-2.304h12.26
			c1.269,0,2.303,1.03,2.303,2.304C271.917,396.251,270.882,397.282,269.613,397.282z"/>
	</g>
	<g>
		<path d="M924.212,530.521H475.785c-1.273,0-2.303-1.03-2.303-2.304V347.473c0-1.273,1.03-2.304,2.303-2.304h448.427
			c1.278,0,2.304,1.03,2.304,2.304v180.744C926.516,529.49,925.49,530.521,924.212,530.521z M478.089,525.913h443.819V349.777
			H478.089V525.913z"/>
	</g>
	<g>
		<path d="M924.212,562.531H475.785c-1.273,0-2.303-1.03-2.303-2.304s1.03-2.304,2.303-2.304h448.427
			c1.278,0,2.304,1.03,2.304,2.304S925.49,562.531,924.212,562.531z"/>
	</g>
	<g>
		<path d="M848.305,594.033h-372.52c-1.273,0-2.303-1.03-2.303-2.304s1.03-2.304,2.303-2.304h372.52c1.273,0,2.304,1.03,2.304,2.304
			S849.578,594.033,848.305,594.033z"/>
	</g>
	<g>
		<path d="M584.23,717.45H475.79c-1.273,0-2.304-1.03-2.304-2.304v-91.915c0-1.272,1.03-2.303,2.304-2.303h108.44
			c1.269,0,2.303,1.03,2.303,2.303v91.915C586.533,716.42,585.499,717.45,584.23,717.45z M478.093,712.844h103.833v-87.309H478.093
			V712.844z"/>
	</g>
	<g>
		<path d="M729.846,717.45H621.41c-1.273,0-2.303-1.03-2.303-2.304v-91.915c0-1.272,1.03-2.303,2.303-2.303h108.436
			c1.277,0,2.303,1.03,2.303,2.303v91.915C732.148,716.42,731.123,717.45,729.846,717.45z M623.713,712.844h103.829v-87.309H623.713
			V712.844z"/>
	</g>
	<g>
		<path d="M924.212,625.535H761.869c-1.273,0-2.304-1.03-2.304-2.304c0-1.272,1.03-2.303,2.304-2.303h162.343
			c1.278,0,2.304,1.03,2.304,2.303C926.516,624.505,925.49,625.535,924.212,625.535z"/>
	</g>
	<g>
		<path d="M924.212,655.22H761.869c-1.273,0-2.304-1.03-2.304-2.304c0-1.272,1.03-2.303,2.304-2.303h162.343
			c1.278,0,2.304,1.03,2.304,2.303C926.516,654.189,925.49,655.22,924.212,655.22z"/>
	</g>
	<g>
		<path d="M924.212,684.913H761.869c-1.273,0-2.304-1.03-2.304-2.303c0-1.273,1.03-2.304,2.304-2.304h162.343
			c1.278,0,2.304,1.03,2.304,2.304C926.516,683.883,925.49,684.913,924.212,684.913z"/>
	</g>
	<g>
		<path d="M814.544,714.598h-52.675c-1.273,0-2.304-1.03-2.304-2.303c0-1.273,1.03-2.304,2.304-2.304h52.675
			c1.273,0,2.304,1.03,2.304,2.304C816.848,713.567,815.817,714.598,814.544,714.598z"/>
	</g>
	<g>
		<g>
			<path d="M1308.829,423.619h-291.244c-1.278,0-2.304-1.03-2.304-2.304V368.65c0-1.273,1.025-2.303,2.304-2.303h291.244
				c1.273,0,2.304,1.03,2.304,2.303v52.666C1311.133,422.589,1310.103,423.619,1308.829,423.619z M1019.889,419.012h286.637v-48.059
				h-286.637V419.012z"/>
		</g>
		<g>
			<path d="M1308.829,612.628h-291.244c-1.278,0-2.304-1.03-2.304-2.304V421.315c0-1.273,1.025-2.303,2.304-2.303h291.244
				c1.273,0,2.304,1.03,2.304,2.303v189.009C1311.133,611.598,1310.103,612.628,1308.829,612.628z M1019.889,608.021h286.637
				V423.619h-286.637V608.021z"/>
		</g>
	</g>
	<g>
		<g>
			<path d="M382.413,423.619H91.164c-1.269,0-2.303-1.03-2.303-2.304V368.65c0-1.273,1.035-2.303,2.303-2.303h291.249
				c1.278,0,2.303,1.03,2.303,2.303v52.666C384.716,422.589,383.69,423.619,382.413,423.619z M93.467,419.012h286.642v-48.059
				H93.467V419.012z"/>
		</g>
		<g>
			<path d="M382.413,612.628H91.164c-1.269,0-2.303-1.03-2.303-2.304V421.315c0-1.273,1.035-2.303,2.303-2.303h291.249
				c1.278,0,2.303,1.03,2.303,2.303v189.009C384.716,611.598,383.69,612.628,382.413,612.628z M93.467,608.021h286.642V423.619
				H93.467V608.021z"/>
		</g>
	</g>
	<g>
		<g>
			<path d="M1263.033,572.658c-0.445,0-0.891-0.131-1.272-0.383l-82.278-54.537c-0.644-0.427-1.03-1.146-1.03-1.921
				c0-0.773,0.387-1.493,1.03-1.921l82.278-54.537c0.706-0.463,1.614-0.513,2.361-0.108c0.747,0.4,1.215,1.179,1.215,2.029v109.074
				c0,0.851-0.468,1.629-1.215,2.029C1263.78,572.568,1263.407,572.658,1263.033,572.658z M1184.922,515.817l75.809,50.245v-100.49
				L1184.922,515.817z"/>
		</g>
		<g>
			<path d="M1063.381,572.658c-0.374,0-0.752-0.09-1.089-0.274c-0.752-0.4-1.215-1.179-1.215-2.029V461.28
				c0-0.85,0.463-1.628,1.215-2.029c0.742-0.405,1.655-0.355,2.361,0.108l82.287,54.537c0.648,0.428,1.035,1.147,1.035,1.921
				c0,0.774-0.387,1.494-1.035,1.921l-82.287,54.537C1064.267,572.527,1063.826,572.658,1063.381,572.658z M1065.684,465.573v100.49
				l75.813-50.245L1065.684,465.573z"/>
		</g>
		<g>
			<path d="M1163.214,529.751c-0.445,0-0.887-0.126-1.273-0.382l-99.833-66.167c-0.846-0.563-1.224-1.611-0.932-2.587
				c0.293-0.972,1.188-1.638,2.205-1.638h199.652c1.018,0,1.912,0.666,2.205,1.638c0.297,0.976-0.086,2.024-0.932,2.587
				l-99.819,66.167C1164.1,529.625,1163.659,529.751,1163.214,529.751z M1071.024,463.584l92.189,61.102l92.176-61.102H1071.024z"/>
		</g>
		<g>
			<path d="M1263.123,572.658c-0.026,0-0.054,0-0.09,0h-199.652c-1.018,0-1.912-0.666-2.205-1.638
				c-0.292-0.977,0.086-2.024,0.932-2.587l82.287-54.537c0.773-0.513,1.772-0.513,2.546,0l16.273,10.789l16.269-10.789
				c0.773-0.513,1.772-0.513,2.546,0l81.941,54.313c0.854,0.337,1.457,1.17,1.457,2.146
				C1265.427,571.628,1264.401,572.658,1263.123,572.658z M1071.024,568.052h184.365l-74.634-49.472l-16.269,10.789
				c-0.774,0.513-1.772,0.513-2.547,0l-16.269-10.789L1071.024,568.052z"/>
		</g>
	</g>
	<g>
		<path d="M282.103,571.178c-0.005,0-0.005,0-0.009,0l-132.496-0.261c-2.834,0-5.498-1.115-7.514-3.136
			c-1.993-2.002-3.091-4.675-3.086-7.522l0.184-89.207c0.032-5.849,4.792-10.6,10.618-10.6l132.51,0.266
			c5.84,0.022,10.591,4.796,10.591,10.635l-0.045,20.025l22.378-12.872c2.619-1.494,5.21-2.25,7.711-2.25
			c6.839,0,11.625,5.525,11.635,13.438l-0.117,52.747c-0.018,7.887-4.796,13.393-11.625,13.393c-2.542,0-5.156-0.773-7.77-2.303
			l-22.32-12.939l-0.027,20.007C292.666,566.44,287.906,571.178,282.103,571.178z M149.795,465.06c-3.293,0-5.988,2.695-6.006,6.011
			l-0.185,89.197c0,1.615,0.621,3.132,1.746,4.266c1.143,1.147,2.654,1.777,4.251,1.777l132.501,0.261
			c3.284,0,5.983-2.69,6.01-5.993l0.036-23.984c0-0.823,0.441-1.583,1.156-1.992c0.711-0.41,1.588-0.41,2.304,0.004l25.775,14.946
			c1.907,1.115,3.739,1.678,5.453,1.678c4.256,0,7.01-3.451,7.019-8.796l0.117-52.737c-0.009-7.491-5.723-11.022-12.453-7.189
			l-25.833,14.855c-0.71,0.4-1.588,0.405-2.303-0.004c-0.711-0.414-1.147-1.175-1.143-1.998l0.054-24.011
			c0-3.307-2.69-6.011-5.997-6.024L149.795,465.06z"/>
	</g>
</g>
<g>
	<g>
		<path d="M1048.583,186.525h-15.278c-1.278,0-2.304-1.03-2.304-2.303v-80.578c0-1.273,1.025-2.304,2.304-2.304h261.33
			c1.273,0,2.304,1.03,2.304,2.304V155.1c0,1.273-1.03,2.303-2.304,2.303h-15.283c-1.273,0-2.304-1.03-2.304-2.303V121.23h-226.161
			v62.991C1050.887,185.495,1049.861,186.525,1048.583,186.525z M1035.607,181.918h10.672v-62.991c0-1.273,1.035-2.304,2.304-2.304
			h230.769c1.273,0,2.304,1.03,2.304,2.304v33.869h10.676v-46.848h-256.724V181.918z"/>
	</g>
	<g>
		<path d="M1163.97,186.525h-115.387c-1.269,0-2.304-1.03-2.304-2.303v-65.294c0-1.273,1.035-2.304,2.304-2.304h230.769
			c1.273,0,2.304,1.03,2.304,2.304V155.1c0,1.273-1.03,2.303-2.304,2.303h-104.525l-8.656,27.512
			C1165.863,185.873,1164.973,186.525,1163.97,186.525z M1050.887,181.918h111.396l8.656-27.511c0.306-0.958,1.196-1.611,2.2-1.611
			h103.909V121.23h-226.161V181.918z"/>
	</g>
	<g>
		<path d="M1294.635,316.848h-261.33c-1.044,0-1.953-0.697-2.228-1.705l-35.15-130.323c-0.185-0.693-0.036-1.431,0.396-1.998
			c0.441-0.571,1.116-0.904,1.831-0.904h164.129l8.656-27.511c0.306-0.958,1.196-1.611,2.2-1.611h155.117
			c0.697,0,1.354,0.315,1.786,0.85c0.44,0.54,0.612,1.251,0.468,1.93l-33.621,159.445
			C1296.664,316.083,1295.724,316.848,1294.635,316.848z M1035.068,312.241h257.695l32.653-154.838h-150.591l-8.656,27.512
			c-0.307,0.958-1.197,1.61-2.2,1.61h-162.807L1035.068,312.241z"/>
	</g>
	<g>
		<g>
			<path d="M1191.733,298.506h-57.057c-1.273,0-2.304-1.03-2.304-2.304v-56.638c0-1.273,1.03-2.303,2.304-2.303h57.057
				c1.277,0,2.303,1.03,2.303,2.303v56.638C1194.036,297.476,1193.011,298.506,1191.733,298.506z M1136.979,293.899h52.45v-52.031
				h-52.45V293.899z"/>
		</g>
		<g>
			<path d="M1163.205,272.366c-4.189,0-7.6-3.41-7.6-7.599c0-4.193,3.41-7.604,7.6-7.604c4.188,0,7.599,3.411,7.599,7.604
				C1170.804,268.956,1167.394,272.366,1163.205,272.366z M1163.205,261.771c-1.651,0-2.992,1.345-2.992,2.996
				s1.341,2.992,2.992,2.992c1.65,0,2.991-1.34,2.991-2.992S1164.855,261.771,1163.205,261.771z"/>
		</g>
		<g>
			<path d="M1163.205,281.846c-1.273,0-2.304-1.03-2.304-2.303v-9.479c0-1.273,1.03-2.304,2.304-2.304
				c1.272,0,2.303,1.03,2.303,2.304v9.479C1165.508,280.815,1164.478,281.846,1163.205,281.846z"/>
		</g>
		<g>
			<path d="M1185.245,241.832c-1.269,0-2.304-1.03-2.304-2.304v-13.992c0-10.888-8.854-19.742-19.736-19.742
				c-10.884,0-19.737,8.854-19.737,19.742v13.992c0,1.273-1.035,2.304-2.304,2.304c-1.277,0-2.304-1.03-2.304-2.304v-13.992
				c0-13.425,10.919-24.349,24.345-24.349c13.425,0,24.344,10.923,24.344,24.349v13.992
				C1187.549,240.801,1186.523,241.832,1185.245,241.832z"/>
		</g>
	</g>
	<g>
		<path d="M1118.12,267.071h-48.904c-1.269,0-2.304-1.03-2.304-2.304s1.035-2.304,2.304-2.304h48.904
			c1.277,0,2.304,1.03,2.304,2.304S1119.397,267.071,1118.12,267.071z"/>
	</g>
	<g>
		<path d="M1257.193,267.071h-48.904c-1.277,0-2.303-1.03-2.303-2.304s1.025-2.304,2.303-2.304h48.904
			c1.27,0,2.304,1.03,2.304,2.304S1258.463,267.071,1257.193,267.071z"/>
	</g>
</g>
<g>
	<g>
		<g>
			<path d="M259.661,789.876h-45.746c-1.273,0-2.303-1.03-2.303-2.304v-45.409c0-1.272,1.03-2.303,2.303-2.303h45.746
				c1.278,0,2.304,1.03,2.304,2.303v45.409C261.965,788.846,260.939,789.876,259.661,789.876z M216.219,785.269h41.139v-40.802
				h-41.139V785.269z"/>
		</g>
		<g>
			<path d="M236.788,768.919c-3.613,0-6.55-2.938-6.55-6.55c0-3.608,2.938-6.547,6.55-6.547s6.551,2.938,6.551,6.547
				C243.339,765.981,240.401,768.919,236.788,768.919z M236.788,760.43c-1.071,0-1.943,0.868-1.943,1.939
				c0,1.07,0.873,1.943,1.943,1.943s1.944-0.873,1.944-1.943C238.732,761.298,237.859,760.43,236.788,760.43z"/>
		</g>
		<g>
			<path d="M236.788,776.518c-1.273,0-2.303-1.029-2.303-2.303v-7.6c0-1.272,1.03-2.303,2.303-2.303c1.273,0,2.304,1.03,2.304,2.303
				v7.6C239.092,775.488,238.062,776.518,236.788,776.518z"/>
		</g>
		<g>
			<path d="M254.46,744.44c-1.269,0-2.304-1.03-2.304-2.304v-11.216c0-8.477-6.893-15.374-15.369-15.374
				s-15.369,6.897-15.369,15.374v11.216c0,1.273-1.035,2.304-2.303,2.304c-1.278,0-2.304-1.03-2.304-2.304v-11.216
				c0-11.019,8.962-19.98,19.976-19.98s19.976,8.962,19.976,19.98v11.216C256.764,743.41,255.738,744.44,254.46,744.44z"/>
		</g>
	</g>
	<g>
		<path d="M200.643,764.672H161.43c-1.269,0-2.304-1.03-2.304-2.303c0-1.273,1.035-2.304,2.304-2.304h39.213
			c1.273,0,2.303,1.03,2.303,2.304C202.946,763.642,201.916,764.672,200.643,764.672z"/>
	</g>
	<g>
		<path d="M312.147,764.672h-39.214c-1.269,0-2.303-1.03-2.303-2.303c0-1.273,1.035-2.304,2.303-2.304h39.214
			c1.269,0,2.303,1.03,2.303,2.304C314.45,763.642,313.416,764.672,312.147,764.672z"/>
	</g>
	<g>
		<g>
			<path d="M373.567,841.983h-273.55c-1.277,0-2.303-1.03-2.303-2.304V661.141c0-1.273,1.026-2.304,2.303-2.304h273.55
				c1.269,0,2.304,1.03,2.304,2.304V839.68C375.871,840.953,374.836,841.983,373.567,841.983z M102.321,837.376h268.943V663.444
				H102.321V837.376z"/>
		</g>
		<g>
			<path d="M360.579,828.999H113.002c-1.278,0-2.303-1.03-2.303-2.304V674.129c0-1.272,1.025-2.303,2.303-2.303h247.577
				c1.273,0,2.304,1.03,2.304,2.303v152.566C362.882,827.969,361.852,828.999,360.579,828.999z M115.306,824.393h242.97v-147.96
				h-242.97V824.393z"/>
		</g>
		<g>
			<path d="M373.567,866.008h-273.55c-1.277,0-2.303-1.03-2.303-2.303V839.68c0-1.273,1.026-2.304,2.303-2.304h273.55
				c1.269,0,2.304,1.03,2.304,2.304v24.025C375.871,864.978,374.836,866.008,373.567,866.008z M102.321,861.401h268.943v-19.418
				H102.321V861.401z"/>
		</g>
		<g>
			<path d="M263.197,898.914h-52.81c-1.277,0-2.303-1.03-2.303-2.304v-32.905c0-1.273,1.026-2.304,2.303-2.304h52.81
				c1.269,0,2.304,1.03,2.304,2.304v32.905C265.501,897.884,264.466,898.914,263.197,898.914z M212.691,894.307h48.203v-28.299
				h-48.203V894.307z"/>
		</g>
		<g>
			<path d="M292.194,898.914H181.387c-1.273,0-2.304-1.03-2.304-2.304s1.03-2.304,2.304-2.304h110.807
				c1.273,0,2.303,1.03,2.303,2.304S293.467,898.914,292.194,898.914z"/>
		</g>
	</g>
</g>
<g>
	<g>
		<path d="M372.263,298.303H105.624c-1.269,0-2.303-1.03-2.303-2.303V117.127c0-1.273,1.035-2.303,2.303-2.303h133.32
			c1.273,0,2.303,1.03,2.303,2.303v14.955c0,1.273-1.03,2.303-2.303,2.303H122.882v144.356h232.127v-96.198
			c0-1.273,1.03-2.304,2.304-2.304h14.95c1.273,0,2.304,1.03,2.304,2.304V296C374.566,297.273,373.536,298.303,372.263,298.303z
			 M107.927,293.696h262.032v-108.85h-10.343v96.198c0,1.273-1.03,2.304-2.304,2.304H120.578c-1.273,0-2.303-1.03-2.303-2.304
			V132.083c0-1.273,1.03-2.304,2.303-2.304H236.64v-10.348H107.927V293.696z"/>
	</g>
	<g>
		<path d="M357.313,283.349H120.578c-1.273,0-2.303-1.03-2.303-2.304V132.083c0-1.273,1.03-2.304,2.303-2.304h118.365
			c1.273,0,2.303,1.03,2.303,2.304v78.508l44.149-29.955c0.387-0.256,0.837-0.396,1.296-0.396h70.621
			c1.273,0,2.304,1.03,2.304,2.304v98.501C359.616,282.318,358.586,283.349,357.313,283.349z M122.882,278.742h232.127v-93.895
			h-67.606l-47.168,31.997c-0.702,0.473-1.615,0.526-2.371,0.126c-0.751-0.396-1.224-1.179-1.224-2.033v-80.551H122.882V278.742z"/>
	</g>
	<g>
		<path d="M392.693,316.848h-307.5c-11.085,0-20.106-9.021-20.106-20.106V296c0-1.273,1.03-2.304,2.304-2.304h133.967
			c1.273,0,2.303,1.03,2.303,2.304v5.174h70.567V296c0-1.273,1.03-2.304,2.304-2.304h133.963c1.278,0,2.303,1.03,2.303,2.304v0.742
			C412.799,307.828,403.783,316.848,392.693,316.848z M69.775,298.303c0.783,7.815,7.396,13.938,15.418,13.938h307.5
			c8.022,0,14.635-6.123,15.422-13.938H278.836v5.174c0,1.273-1.03,2.304-2.303,2.304h-75.174c-1.273,0-2.304-1.03-2.304-2.304
			v-5.174H69.775z"/>
	</g>
	<g>
		<path d="M276.533,305.781h-75.174c-1.273,0-2.304-1.03-2.304-2.304V296c0-1.273,1.03-2.304,2.304-2.304h75.174
			c1.273,0,2.303,1.03,2.303,2.304v7.477C278.836,304.75,277.806,305.781,276.533,305.781z M203.662,301.174h70.567v-2.871h-70.567
			V301.174z"/>
	</g>
	<g>
		<path d="M238.943,184.847c-0.374,0-0.751-0.09-1.089-0.274c-0.751-0.4-1.215-1.179-1.215-2.029V71.863
			c0-0.85,0.463-1.628,1.215-2.029c0.742-0.405,1.651-0.355,2.362,0.108l83.493,55.338c0.647,0.427,1.035,1.147,1.035,1.921
			c0,0.774-0.387,1.494-1.035,1.921l-83.493,55.342C239.83,184.716,239.389,184.847,238.943,184.847z M241.247,76.155v102.097
			l77.023-51.051L241.247,76.155z"/>
	</g>
	<g>
		<path d="M441.539,184.847c-0.45,0-0.891-0.13-1.277-0.382l-83.493-55.342c-0.648-0.427-1.035-1.147-1.035-1.921
			c0-0.773,0.387-1.494,1.035-1.921l83.493-55.338c0.71-0.463,1.62-0.513,2.366-0.108c0.747,0.4,1.215,1.179,1.215,2.029v110.681
			c0,0.85-0.468,1.628-1.215,2.029C442.286,184.757,441.908,184.847,441.539,184.847z M362.212,127.201l77.023,51.051V76.155
			L362.212,127.201z"/>
	</g>
	<g>
		<path d="M340.239,141.305c-0.441,0-0.886-0.126-1.273-0.382L237.67,73.784c-0.846-0.563-1.224-1.611-0.931-2.587
			c0.292-0.972,1.188-1.638,2.205-1.638h202.595c1.017,0,1.908,0.666,2.205,1.638c0.292,0.976-0.09,2.024-0.936,2.587
			l-101.296,67.139C341.125,141.179,340.68,141.305,340.239,141.305z M246.587,74.167l93.652,62.073l93.652-62.073H246.587z"/>
	</g>
	<g>
		<path d="M238.943,217.24c-0.369,0-0.743-0.09-1.08-0.27c-0.751-0.396-1.224-1.179-1.224-2.033v-32.393
			c0-0.774,0.387-1.494,1.03-1.921l83.493-55.343c0.773-0.513,1.772-0.513,2.546,0l16.529,10.959l16.529-10.959
			c0.774-0.513,1.772-0.513,2.546,0l83.493,55.343c0.846,0.562,1.228,1.61,0.936,2.587c-0.297,0.972-1.188,1.637-2.205,1.637
			H287.402l-47.168,31.997C239.848,217.105,239.397,217.24,238.943,217.24z M241.247,183.781v26.81l44.149-29.955
			c0.387-0.256,0.837-0.396,1.296-0.396h147.199l-75.854-50.276l-16.525,10.959c-0.773,0.513-1.772,0.513-2.546,0l-16.525-10.959
			L241.247,183.781z"/>
	</g>
</g>
<g>
	<g>
		<path d="M1305.491,810.045h-284.568c-1.277,0-2.304-1.03-2.304-2.304V649.065c0-1.273,1.026-2.304,2.304-2.304h284.568
			c1.272,0,2.303,1.03,2.303,2.304v158.676C1307.794,809.015,1306.764,810.045,1305.491,810.045z M1023.227,805.438h279.961V651.369
			h-279.961V805.438z"/>
	</g>
	<g>
		<path d="M1305.491,845.452h-284.568c-1.277,0-2.304-1.03-2.304-2.304v-35.407c0-1.273,1.026-2.304,2.304-2.304h284.568
			c1.272,0,2.303,1.03,2.303,2.304v35.407C1307.794,844.422,1306.764,845.452,1305.491,845.452z M1023.227,840.845h279.961v-30.8
			h-279.961V840.845z"/>
	</g>
</g>
<g>
	<path d="M1209.761,884.787h-89.175c-1.273,0-2.304-1.03-2.304-2.304v-39.335c0-1.273,1.03-2.304,2.304-2.304h89.175
		c1.273,0,2.304,1.03,2.304,2.304v39.335C1212.064,883.757,1211.034,884.787,1209.761,884.787z M1122.889,880.18h84.568v-34.728
		h-84.568V880.18z"/>
</g>
<g>
	<path d="M1232.054,884.787h-137.697c-1.269,0-2.304-1.03-2.304-2.304s1.035-2.304,2.304-2.304h137.697
		c1.272,0,2.303,1.03,2.303,2.304S1233.326,884.787,1232.054,884.787z"/>
</g>
<g>
	<g>
		<path d="M1134.694,715.66c0.558,0,1.111-0.148,1.602-0.428c1.512-0.891,2.024-2.844,1.143-4.355
			c-0.85-1.453-2.856-2.011-4.346-1.146c-1.512,0.891-2.029,2.843-1.151,4.346C1132.499,715.053,1133.557,715.66,1134.694,715.66z"
			/>
	</g>
	<g>
		<path d="M1136.359,756.695c-1.476-0.846-3.514-0.283-4.338,1.174c-0.751,1.296-0.472,2.925,0.585,3.915l0.612,0.458
			c0.504,0.266,1.025,0.401,1.548,0.401c1.124,0,2.182-0.604,2.763-1.593C1138.401,759.539,1137.88,757.586,1136.359,756.695z"/>
	</g>
	<g>
		<path d="M1121.732,742.276c-1.646,0.603-2.497,2.434-1.894,4.089c0.468,1.251,1.664,2.093,2.987,2.093
			c0.378,0,0.756-0.072,1.084-0.203c0.806-0.288,1.444-0.877,1.805-1.655c0.359-0.773,0.391-1.643,0.099-2.416
			C1125.237,742.582,1123.384,741.66,1121.732,742.276z"/>
	</g>
	<g>
		<path d="M1121.729,729.71c0.355,0.122,0.715,0.185,1.07,0.185c1.341,0,2.547-0.851,2.987-2.105c0.288-0.796,0.252-1.66-0.107-2.43
			c-0.36-0.765-0.999-1.345-1.8-1.638c-1.611-0.58-3.505,0.311-4.067,1.899c-0.297,0.796-0.261,1.66,0.099,2.434
			C1120.271,728.828,1120.914,729.413,1121.729,729.71z"/>
	</g>
	<g>
		<path d="M1152.502,759.534c-0.837,0.135-1.566,0.594-2.057,1.287c-0.49,0.701-0.684,1.552-0.535,2.394
			c0.266,1.521,1.584,2.627,3.131,2.627c0.189,0,0.378-0.018,0.554-0.054c0.842-0.148,1.57-0.612,2.056-1.31
			c0.486-0.692,0.676-1.534,0.522-2.361C1155.876,760.402,1154.112,759.197,1152.502,759.534z"/>
	</g>
	<g>
		<path d="M1175.429,732.666c-0.846,0-1.638,0.333-2.24,0.936c-0.604,0.607-0.937,1.408-0.932,2.354c0,1.75,1.426,3.172,3.181,3.172
			s3.186-1.422,3.186-3.28C1178.614,734.092,1177.184,732.666,1175.429,732.666z"/>
	</g>
	<g>
		<path d="M1166.674,751.328c-0.549,0.647-0.814,1.467-0.747,2.308c0.072,0.851,0.468,1.624,1.129,2.183
			c0.563,0.477,1.292,0.737,2.038,0.737c0.945,0,1.831-0.409,2.438-1.129c1.13-1.341,0.954-3.356-0.404-4.504
			C1169.827,749.853,1167.722,750.055,1166.674,751.328z"/>
	</g>
	<g>
		<path d="M1152.389,712.349c0.193,0.036,0.383,0.045,0.563,0.045c1.548,0,2.866-1.106,3.136-2.641
			c0.145-0.842-0.049-1.688-0.544-2.385c-0.495-0.693-1.224-1.147-2.038-1.287c-1.769-0.351-3.396,0.873-3.693,2.597
			C1149.519,710.409,1150.684,712.056,1152.389,712.349z"/>
	</g>
	<g>
		<path d="M1169.04,721.63c0.761,0,1.493-0.274,2.042-0.751c0.648-0.545,1.053-1.31,1.125-2.155
			c0.072-0.851-0.188-1.678-0.737-2.326c-1.08-1.296-3.177-1.489-4.49-0.378c-1.327,1.134-1.494,3.145-0.369,4.485
			C1167.218,721.221,1168.104,721.63,1169.04,721.63z"/>
	</g>
</g>
<g>
	<g>
		<polygon fill="#FFFFFF" points="1225.422,766.98 1153.617,735.95 1225.422,704.916 1209.797,735.95 		"/>
		<path d="M1225.422,769.283c-0.306,0-0.621-0.063-0.913-0.188l-71.81-31.03c-0.841-0.364-1.386-1.196-1.386-2.114
			s0.545-1.75,1.386-2.114l71.81-31.034c0.886-0.383,1.921-0.176,2.587,0.535c0.666,0.702,0.818,1.75,0.387,2.614l-15.107,29.999
			l14.847,29.487c0.368,0.409,0.594,0.949,0.594,1.543c0.004,1.291-0.999,2.199-2.349,2.303
			C1225.453,769.283,1225.439,769.283,1225.422,769.283z M1159.421,735.95l61.088,26.4l-12.769-25.365
			c-0.328-0.652-0.328-1.417,0-2.069l12.769-25.366L1159.421,735.95z"/>
	</g>
	<g>
		<line fill="#FFFFFF" x1="1209.797" y1="735.95" x2="1266.313" y2="735.95"/>
		<path d="M1266.313,738.254h-56.517c-1.273,0-2.304-1.03-2.304-2.304s1.03-2.304,2.304-2.304h56.517
			c1.273,0,2.304,1.03,2.304,2.304S1267.587,738.254,1266.313,738.254z"/>
	</g>
	<g>
		<line fill="#FFFFFF" x1="1154.886" y1="735.393" x2="1202.782" y2="747.338"/>
		<path d="M1202.782,749.641c-0.185,0-0.373-0.022-0.558-0.067l-47.896-11.944c-1.232-0.311-1.984-1.562-1.678-2.794
			c0.311-1.237,1.552-1.979,2.793-1.679l47.897,11.945c1.232,0.311,1.979,1.561,1.673,2.794
			C1204.753,748.943,1203.817,749.641,1202.782,749.641z"/>
	</g>
</g>
<g>
	<path d="M575.511,867.209c-15.18,0-27.525-12.35-27.525-27.529s12.345-27.529,27.525-27.529s27.534,12.35,27.534,27.529
		S590.69,867.209,575.511,867.209z M575.511,816.758c-12.638,0-22.918,10.284-22.918,22.922s10.28,22.923,22.918,22.923
		c12.642,0,22.927-10.285,22.927-22.923S588.153,816.758,575.511,816.758z"/>
</g>
<g>
	<path d="M699.9,867.209c-15.18,0-27.525-12.35-27.525-27.529S684.72,812.15,699.9,812.15c15.179,0,27.534,12.35,27.534,27.529
		S715.079,867.209,699.9,867.209z M699.9,816.758c-12.638,0-22.918,10.284-22.918,22.922s10.28,22.923,22.918,22.923
		c12.642,0,22.927-10.285,22.927-22.923S712.542,816.758,699.9,816.758z"/>
</g>
<g>
	<path d="M824.289,867.209c-15.18,0-27.525-12.35-27.525-27.529s12.346-27.529,27.525-27.529s27.533,12.35,27.533,27.529
		S839.469,867.209,824.289,867.209z M824.289,816.758c-12.638,0-22.918,10.284-22.918,22.922s10.28,22.923,22.918,22.923
		c12.642,0,22.927-10.285,22.927-22.923S836.931,816.758,824.289,816.758z"/>
</g>
<g>
	<path d="M575.511,171.462c-15.18,0-27.525-12.35-27.525-27.53s12.345-27.529,27.525-27.529s27.534,12.35,27.534,27.529
		S590.69,171.462,575.511,171.462z M575.511,121.01c-12.638,0-22.918,10.285-22.918,22.922s10.28,22.923,22.918,22.923
		c12.642,0,22.927-10.285,22.927-22.923S588.153,121.01,575.511,121.01z"/>
</g>
<g>
	<path d="M699.9,171.462c-15.18,0-27.525-12.35-27.525-27.53s12.345-27.529,27.525-27.529c15.179,0,27.534,12.35,27.534,27.529
		S715.079,171.462,699.9,171.462z M699.9,121.01c-12.638,0-22.918,10.285-22.918,22.922s10.28,22.923,22.918,22.923
		c12.642,0,22.927-10.285,22.927-22.923S712.542,121.01,699.9,121.01z"/>
</g>
<g>
	<path d="M824.289,171.462c-15.18,0-27.525-12.35-27.525-27.53s12.346-27.529,27.525-27.529s27.533,12.35,27.533,27.529
		S839.469,171.462,824.289,171.462z M824.289,121.01c-12.638,0-22.918,10.285-22.918,22.922s10.28,22.923,22.918,22.923
		c12.642,0,22.927-10.285,22.927-22.923S836.931,121.01,824.289,121.01z"/>
</g>
</svg>
